<svg width="32" height="28" viewBox="0 0 32 28" fill="none" xmlns="http://www.w3.org/2000/svg">
<path d="M8.21475 1.44081C8.42646 1.06791 8.67879 0.901471 9.01184 0.673564C10.485 -0.334201 11.7925 -0.266839 13.0116 1.25526C13.1409 1.41661 13.284 1.6481 13.453 1.76305C13.9774 2.11945 14.7168 2.14557 15.1888 2.53978C15.2578 2.91234 15.227 3.28978 15.2602 3.66577L22.9681 3.6976L22.9428 8.65455L26.1641 5.22722C26.6459 4.73277 27.0706 4.35018 27.7257 4.1552C29.8675 3.51789 32.0191 5.79379 31.8581 8.08825C31.7774 9.23741 30.8992 9.9467 30.1899 10.699L23.7194 17.6242C23.5473 17.8117 23.3762 18.0111 23.1843 18.1763L22.9658 18.3645C22.9753 18.5417 22.9504 18.7149 22.9498 18.8916L22.9485 26.9173C22.9489 27.2474 22.935 27.5814 22.9797 27.9087L0.140625 27.9327L0.171516 3.64948C0.437746 3.68791 0.72078 3.6754 0.989398 3.67574L6.25916 3.67505L6.19558 2.72108C6.14192 2.07345 6.10279 1.69739 6.86712 1.94633L7.10388 2.01089C7.22742 2.05152 7.30048 2.02237 7.42096 1.99824L7.96508 1.86562C8.06227 1.73238 8.12923 1.58223 8.21475 1.44081ZM15.32 4.67103L15.3592 5.41677L6.16923 5.44103L6.13809 4.7908L1.18541 4.74075L1.17399 26.8364L21.9388 26.8362L21.9484 19.4554L21.6142 19.8506C21.5049 19.9741 20.7607 20.6529 20.7319 20.75C20.7157 20.8047 20.7271 20.9244 20.7257 20.986L20.7256 24.9417C20.7268 25.0078 20.7396 25.0892 20.7182 25.1515L3.89293 25.1054L2.46842 25.1159L2.48425 6.77272L3.53056 6.79149L3.49403 24.0301L12.4722 24.0093L13.1397 20.4007C13.2253 20.0285 13.3564 19.6748 13.4625 19.3096C13.647 18.6736 13.3941 18.9497 13.897 18.39L19.4916 12.3916C19.661 12.215 19.6988 12.2453 19.6925 11.9975L19.6836 6.79596C19.7846 6.76928 19.9305 6.79142 20.0367 6.79266L20.7238 6.78977L20.6744 11.101L21.9706 9.73557L21.9547 4.75106L15.32 4.67103ZM28.457 8.50165C28.167 8.73973 27.8992 9.04635 27.6396 9.32087L16.5317 21.1596C16.3362 21.3521 16.1017 21.5439 15.9326 21.7616L17.1642 23.0134C17.4524 22.8127 17.6991 22.5321 17.9377 22.2718L21.3446 18.6311C21.4467 18.5233 21.5611 18.4253 21.6604 18.3154L27.9725 11.5693L29.6206 9.75764C29.2812 9.45982 28.7236 8.91332 28.4918 8.51395L28.457 8.50165ZM26.4642 6.42065L25.1051 7.96464C24.9 8.0283 24.7566 8.23483 24.6073 8.39708L18.4739 14.9948C18.3817 15.0981 18.3018 15.2138 18.2059 15.3131L14.8071 18.945C14.5771 19.2001 14.0436 19.594 14.3225 19.9767L15.2338 20.9761L15.3787 20.8328L27.7072 7.76788L26.4642 6.42065ZM9.49866 1.61599L9.27066 1.9033C9.19442 2.01653 8.98667 2.33484 8.99607 2.48348C8.75542 2.80812 8.3076 2.74624 7.96423 2.79189L7.86704 2.94685C7.701 3.17888 7.45931 3.22405 7.20257 3.26668L7.18382 4.38338L14.3227 4.42697L14.3073 3.559C14.3053 3.35564 14.3837 3.31013 14.2033 3.24832C13.3468 2.95462 13.1084 3.10065 12.5641 2.31621C11.6744 1.03416 10.7478 0.604608 9.49866 1.61599ZM28.1538 5.14183C27.7558 5.21883 27.4667 5.38267 27.1527 5.64825L30.1075 8.78352L30.3524 9.04553C30.6891 8.55871 30.9461 8.14126 30.8588 7.5133C30.7198 6.51388 29.7991 5.30601 28.8021 5.15187L28.771 5.14678C28.5674 5.1153 28.3581 5.12327 28.1538 5.14183ZM14.0267 21.2082L13.5188 23.7061L15.3336 23.4293L16.0362 23.3269C15.9638 23.229 15.8526 23.1458 15.7652 23.0607L15.1789 22.482C14.7853 22.0688 14.4301 21.6108 14.0267 21.2082ZM19.6789 21.9107L17.6897 24.0619C18.4332 24.0121 18.9761 24.0596 19.6793 24.0664L19.6789 21.9107Z" fill="#1E1F1C"/>
<path d="M8.21842 1.44043L8.22225 1.47384C8.22835 1.55937 8.0106 1.85032 8.12097 1.8211L8.16587 1.809C8.29051 1.7826 8.34845 1.84935 8.4424 1.72987C8.49619 1.66139 8.56496 1.60997 8.65132 1.60041L8.74047 1.64441L8.6837 1.6704C8.71082 1.68092 8.83481 1.66359 8.85408 1.64338L9.01629 1.64317L8.69953 1.53352C8.77129 1.5155 9.00448 1.59574 9.06768 1.63554L9.29867 1.68174L9.26908 1.69095C9.04309 1.75558 8.70881 1.58762 8.55257 1.84729L8.59312 2.04605C8.51085 1.99806 8.44499 1.92092 8.38355 1.8466L8.35675 1.81367C8.23523 1.8167 8.12648 1.84736 8.00729 1.86104L7.96875 1.86524C8.06595 1.732 8.13291 1.58185 8.21842 1.44043Z" fill="#435151"/>
<path d="M9.29297 1.68137C9.36239 1.64212 9.41878 1.62589 9.49664 1.61523L9.26864 1.90254C9.1924 2.01577 8.98464 2.33408 8.99405 2.48272L8.92871 2.4478L8.58743 2.04568L8.54688 1.84692C8.70311 1.58725 9.03739 1.75521 9.26338 1.69058L9.29297 1.68137Z" fill="url(#paint0_linear_1446_3389)"/>
<path d="M8.92728 2.44858C8.90042 2.1546 8.96757 1.94436 9.2672 1.90332C9.19097 2.01655 8.98321 2.33486 8.99262 2.4835L8.92728 2.44858Z" fill="#A6D2C9"/>
<path d="M10.7201 2.17447C11.3743 2.08509 11.6976 3.10706 10.8714 3.30114C10.222 3.37251 9.90844 2.45903 10.7201 2.17447Z" fill="#1E1F1C"/>
<path d="M14.2109 19.9334L14.3215 19.5818L26.4888 6.33789L27.7055 7.74432L15.2064 20.9882L14.5428 20.285L14.2109 19.9334Z" fill="#5E7153"/>
<path d="M15.9807 21.6914V21.8086L17.1974 22.9807L29.6965 9.73677L28.4798 8.44754L17.0868 20.5194L15.9807 21.6914Z" fill="#5E7153"/>
<path d="M14.2109 19.9334L14.3215 19.5818L26.4888 6.33789L27.7055 7.74432L15.2064 20.9882L14.5428 20.285L14.2109 19.9334Z" stroke="#5E7153" stroke-width="0.381174"/>
<path d="M15.9807 21.6914V21.8086L17.1974 22.9807L29.6965 9.73677L28.4798 8.44754L17.0868 20.5194L15.9807 21.6914Z" stroke="#5E7153" stroke-width="0.381174"/>
<defs>
<linearGradient id="paint0_linear_1446_3389" x1="8.76925" y1="1.71166" x2="9.04672" y2="2.19611" gradientUnits="userSpaceOnUse">
<stop stop-color="#7A9F9A"/>
<stop offset="1" stop-color="#93C3B8"/>
</linearGradient>
</defs>
</svg>
