<svg width="45" height="44" viewBox="0 0 45 44" fill="none" xmlns="http://www.w3.org/2000/svg">
<path d="M4.87578 9.93164L28.0903 9.95852L28.0923 13.6119L34.5757 13.5948C36.382 13.5959 36.7776 13.7848 37.6528 15.5047L40.0475 20.16C40.4541 20.9777 40.6984 21.2261 40.6983 22.1643L40.6996 31.4681L38.5082 31.4751L38.4607 31.747C38.2409 32.8466 37.2911 33.8736 36.3947 34.4676C33.8585 36.111 30.6278 34.5932 29.6778 31.8476C29.6345 31.7227 29.6124 31.5918 29.5779 31.4642L17.4006 31.4779C17.1452 32.3384 16.9302 32.9117 16.3088 33.6223C14.0925 36.1569 9.852 35.327 8.66489 32.1216C8.59188 31.9245 8.52059 31.7275 8.50904 31.5164C7.96577 31.4433 7.40264 31.471 6.85547 31.4709L4.875 31.4637L4.87578 9.93164ZM6.01276 11.0703L6.0021 25.0813L26.9791 25.0982L26.9738 16.0803L26.9723 11.084L20.8686 11.0852L20.875 17.8988L18.4805 16.7481L16.944 17.6892C16.7887 17.7814 16.6309 17.9053 16.4632 17.9706C16.1093 17.713 15.7143 17.5098 15.3415 17.2806L14.6969 16.8783C14.6225 16.8339 14.5459 16.7705 14.4675 16.7372L13.1148 17.399C12.7475 17.5892 12.456 17.7797 12.0411 17.8402L12.0417 11.0932L6.01276 11.0703ZM33.0816 14.7053L29.8159 14.7093C29.2593 14.7094 28.6585 14.666 28.1077 14.7408L28.0977 30.3525L29.4503 30.357C29.4917 30.246 29.4765 30.0797 29.4941 29.9582C29.8655 27.3942 31.9753 25.6533 34.5401 25.8728C36.8809 26.1166 38.488 28.0577 38.6322 30.3394L39.5636 30.3421C39.6064 29.8447 39.5792 29.3278 39.5783 28.8281L39.5777 23.4343C39.5778 22.6925 39.6652 21.9687 39.3456 21.2775L36.7581 16.1919C36.4762 15.623 36.3066 15.0512 35.6841 14.7804L35.6525 14.7663C35.3712 14.6464 35.0533 14.7094 34.7574 14.71L33.0816 14.7053ZM15.6462 26.1998L14.578 26.2158C16.2253 26.8545 17.4887 28.5581 17.4995 30.3521L25.9086 30.3567L26.9773 30.3587L26.9802 26.198L15.6462 26.1998ZM33.6918 26.9921C32.8165 27.087 31.9679 27.4931 31.4124 28.1917L31.3521 28.2727C29.9964 30.081 30.4857 32.5742 32.5768 33.6215C33.1848 33.9259 33.7738 33.9963 34.454 33.9635C35.3008 33.8608 36.1856 33.4274 36.7182 32.7414L36.7669 32.677C38.2551 30.7025 37.3657 27.6514 34.8956 27.0709L34.7058 27.0324C34.3874 26.9755 34.0123 26.9394 33.6918 26.9921ZM12.7182 26.97C10.4373 27.1539 8.9225 29.471 9.67112 31.6458C10.144 33.0197 11.6862 34.202 13.1628 33.9797C14.0519 33.9112 14.9638 33.4935 15.5487 32.807L15.8415 32.4136C17.3702 30.2164 15.5411 26.7422 12.7182 26.97ZM6.00376 26.1946L6.00296 30.3387L8.33682 30.3494C8.47672 29.5532 8.58824 28.8316 9.02755 28.1206C9.58869 27.2414 10.3057 26.6037 11.294 26.2181L6.00376 26.1946ZM17.0038 11.0847L16.9977 16.367L18.3651 15.5321C18.6622 15.5984 18.939 15.7591 19.2124 15.8897L19.7526 16.1254L19.7569 11.0832L17.0038 11.0847ZM13.3929 11.0743L13.1591 11.0862L13.1481 16.0842L13.7946 15.8209C14.8371 15.3681 14.3793 15.5181 15.3488 16.0195C15.5222 16.1147 15.7089 16.2056 15.8662 16.3255C15.8922 15.966 15.8763 15.6136 15.8825 15.2543L15.8908 11.3896C15.8933 11.2994 15.9208 11.1678 15.8935 11.0857L13.3929 11.0743Z" fill="#1E1F1C"/>
<path d="M12.6197 28.4509C13.6657 28.3656 14.7769 28.923 14.9996 30.0277L15.0052 30.0563C15.2616 31.2844 14.4955 32.2977 13.2961 32.5218L13.1615 32.544C11.824 32.6692 10.6796 31.5726 10.873 30.2067C10.9954 29.3419 11.7295 28.5356 12.6197 28.4509ZM12.724 29.5481C11.5249 29.9439 11.7827 31.5722 13.1773 31.4318C13.4239 31.3609 13.6526 31.251 13.7867 31.0188L13.8347 30.9265C14.2263 30.1573 13.5665 29.4646 12.724 29.5481Z" fill="#1E1F1C"/>
<path d="M33.7502 28.4313C36.641 28.1977 36.9783 31.981 34.3638 32.5466C34.0092 32.5708 33.6339 32.5604 33.298 32.4294L33.2734 32.4195C31.3297 31.6524 31.6377 28.7618 33.7502 28.4313ZM33.881 29.5465C32.9878 29.7546 32.7024 30.8061 33.5097 31.2968L33.6494 31.3642C33.8409 31.4453 34.0191 31.4532 34.2247 31.4295C35.4768 31.0746 35.2756 29.4117 33.881 29.5465Z" fill="#1E1F1C"/>
<path d="M29.0557 15.665L34.6155 15.7009C35.6301 15.7018 35.3851 15.6148 35.8259 16.521L37.8063 20.4511C38.4611 21.7394 38.5803 21.8273 38.5961 23.2992L29.0547 23.2891L29.0557 15.665ZM33.2574 16.8112L30.173 16.8291L30.1746 22.1726L34.3313 22.1716L37.397 22.1684L34.7064 16.8172L33.2574 16.8112Z" fill="#1E1F1C"/>
<path d="M6.00781 25.0809V11.1338H12.1023V17.8143L14.4464 16.7595L16.4388 17.9315L18.4313 16.7595L20.8925 17.9315V11.1338H26.9871V25.0809H6.00781Z" fill="#5E7153" stroke="#5E7153" stroke-width="0.381174"/>
</svg>
