<svg width="125" height="58" viewBox="0 0 125 58" fill="none" xmlns="http://www.w3.org/2000/svg">
<path d="M124.248 0.898438H61.4119C39.2023 1.57079 19.9008 12.4177 9.21431 28.3825C9.1636 28.4554 9.11541 28.5307 9.0647 28.6176L8.84162 28.9538C8.50358 29.4804 8.16553 30.0133 7.82749 30.5524C2.90895 38.6637 0.323678 47.8119 0.320312 57.1173H65.0729C97.7586 56.0947 123.946 31.575 124.238 1.37332C124.238 1.21816 124.238 1.06065 124.238 0.903144L124.248 0.898438Z" fill="#6D9033"/>
<path d="M45.6953 35.082L48.7061 39.3726L50.9164 34.6199L45.6953 35.082ZM62.4543 40.167L62.4519 39.713L62.4543 40.167ZM78.8847 35.082L73.6623 34.6349L75.8863 39.3812L78.8847 35.082ZM49.2222 37.2227C52.7094 38.7074 58.0903 40.6441 62.4567 40.6209L62.4519 39.713C58.2894 39.7352 53.0604 37.8702 49.5778 36.3874L49.2222 37.2227ZM62.4567 40.6209C66.7181 40.5982 71.9473 38.6986 75.364 37.2328L75.0061 36.3985C71.5947 37.862 66.5138 39.6914 62.4519 39.713L62.4567 40.6209Z" fill="white"/>
<path d="M45.8813 9.75347C46.167 9.85515 46.3848 10.0077 46.5349 10.211C46.685 10.4096 46.7601 10.6541 46.7601 10.9446C46.7601 11.3997 46.5785 11.7604 46.2154 12.0268C45.8571 12.2882 45.3487 12.4189 44.6902 12.4189H41.9739V7.33494H44.5522C45.1816 7.33494 45.6682 7.45115 46.012 7.68356C46.3606 7.91597 46.5349 8.2428 46.5349 8.66405C46.5349 8.90614 46.4768 9.11918 46.3606 9.30318C46.2493 9.48717 46.0895 9.63727 45.8813 9.75347ZM43.6589 9.28865H44.3851C44.666 9.28865 44.8064 9.16518 44.8064 8.91825C44.8064 8.66162 44.666 8.53331 44.3851 8.53331H43.6589V9.28865ZM44.6103 11.2206C44.8911 11.2206 45.0315 11.085 45.0315 10.8139C45.0315 10.5524 44.8911 10.4217 44.6103 10.4217H43.6589V11.2206H44.6103ZM50.0586 7.21874C50.538 7.21874 50.9616 7.31315 51.3296 7.50199C51.6976 7.69082 51.9833 7.96681 52.1866 8.32995C52.3948 8.68825 52.4989 9.11676 52.4989 9.61548V12.4189H50.7849V9.47022C50.7849 9.18455 50.7171 8.96909 50.5816 8.82383C50.4508 8.67857 50.2765 8.60594 50.0586 8.60594C49.8359 8.60594 49.6567 8.67857 49.5212 8.82383C49.3904 8.96909 49.3251 9.18455 49.3251 9.47022V12.4189H47.0445L47.0373 11.0898H47.611V9.61548C47.611 9.11676 47.7127 8.68825 47.9161 8.32995C48.1243 7.96681 48.4124 7.69082 48.7804 7.50199C49.1483 7.31315 49.5744 7.21874 50.0586 7.21874ZM55.7124 7.21874C56.2063 7.21874 56.6421 7.31799 57.0197 7.51651C57.3974 7.71019 57.6903 7.99586 57.8985 8.37353C58.1116 8.74636 58.2181 9.19181 58.2181 9.7099V12.4189H56.5041V11.3949H54.8917V12.4189H53.2067V9.7099C53.2067 9.19181 53.3108 8.74636 53.519 8.37353C53.7321 7.99586 54.0274 7.71019 54.4051 7.51651C54.7828 7.31799 55.2185 7.21874 55.7124 7.21874ZM56.5041 10.1021V9.56464C56.5041 9.24992 56.429 9.01266 56.2789 8.85288C56.1337 8.68825 55.94 8.60594 55.6979 8.60594C55.4558 8.60594 55.2597 8.68825 55.1096 8.85288C54.9643 9.01266 54.8917 9.24992 54.8917 9.56464V10.1021H56.5041ZM62.9099 8.66405H60.7237V12.4189H59.0388V7.33494H62.9099V8.66405ZM65.7026 12.5352C65.1555 12.5352 64.664 12.4214 64.2282 12.1938C63.7925 11.9662 63.4511 11.6515 63.2042 11.2496C62.9572 10.8429 62.8338 10.3853 62.8338 9.87694C62.8338 9.36854 62.9572 8.9134 63.2042 8.51153C63.4511 8.1048 63.7925 7.78766 64.2282 7.56009C64.664 7.33252 65.1555 7.21874 65.7026 7.21874C66.2497 7.21874 66.7412 7.33252 67.177 7.56009C67.6127 7.78766 67.9541 8.1048 68.201 8.51153C68.448 8.9134 68.5714 9.36854 68.5714 9.87694C68.5714 10.3853 68.448 10.8429 68.201 11.2496C67.9541 11.6515 67.6127 11.9662 67.177 12.1938C66.7412 12.4214 66.2497 12.5352 65.7026 12.5352ZM65.7026 11.1479C65.9156 11.1479 66.1069 11.0971 66.2764 10.9954C66.4507 10.8889 66.5887 10.7412 66.6904 10.5524C66.792 10.3587 66.8429 10.1336 66.8429 9.87694C66.8429 9.62032 66.792 9.39759 66.6904 9.20876C66.5887 9.01508 66.4507 8.86741 66.2764 8.76573C66.1069 8.6592 65.9156 8.60594 65.7026 8.60594C65.4896 8.60594 65.2959 8.6592 65.1216 8.76573C64.9521 8.86741 64.8165 9.01508 64.7149 9.20876C64.6132 9.39759 64.5623 9.62032 64.5623 9.87694C64.5623 10.1336 64.6132 10.3587 64.7149 10.5524C64.8165 10.7412 64.9521 10.8889 65.1216 10.9954C65.2959 11.0971 65.4896 11.1479 65.7026 11.1479ZM71.7449 12.5352C71.2074 12.5352 70.7232 12.4238 70.2923 12.2011C69.8613 11.9735 69.5224 11.6588 69.2755 11.2569C69.0334 10.8502 68.9123 10.3902 68.9123 9.87694C68.9123 9.3637 69.0334 8.90614 69.2755 8.50426C69.5224 8.09754 69.8613 7.78282 70.2923 7.56009C70.7232 7.33252 71.2074 7.21874 71.7449 7.21874C72.2387 7.21874 72.6793 7.30589 73.0667 7.4802C73.454 7.65451 73.7736 7.90629 74.0254 8.23554L72.9432 9.2015C72.6285 8.80446 72.2581 8.60594 71.832 8.60594C71.4737 8.60594 71.1856 8.72215 70.9677 8.95456C70.7498 9.18213 70.6409 9.48959 70.6409 9.87694C70.6409 10.2643 70.7498 10.5742 70.9677 10.8066C71.1856 11.0342 71.4737 11.1479 71.832 11.1479C72.2581 11.1479 72.6285 10.9494 72.9432 10.5524L74.0254 11.5184C73.7736 11.8476 73.454 12.0994 73.0667 12.2737C72.6793 12.448 72.2387 12.5352 71.7449 12.5352ZM78.7993 9.11434C78.4071 8.89646 78.0101 8.74636 77.6082 8.66405V12.4189H75.8942V8.66405C75.4923 8.74636 75.0952 8.89646 74.703 9.11434L74.1365 7.89418C74.4997 7.6763 74.9064 7.50925 75.3567 7.39304C75.807 7.27684 76.2718 7.21874 76.7512 7.21874C77.2305 7.21874 77.6953 7.27684 78.1456 7.39304C78.5959 7.50925 79.0027 7.6763 79.3658 7.89418L78.7993 9.11434ZM82.3774 12.5352C81.8303 12.5352 81.3388 12.4214 80.903 12.1938C80.4673 11.9662 80.1259 11.6515 79.879 11.2496C79.632 10.8429 79.5086 10.3853 79.5086 9.87694C79.5086 9.36854 79.632 8.9134 79.879 8.51153C80.1259 8.1048 80.4673 7.78766 80.903 7.56009C81.3388 7.33252 81.8303 7.21874 82.3774 7.21874C82.9245 7.21874 83.416 7.33252 83.8518 7.56009C84.2875 7.78766 84.6289 8.1048 84.8758 8.51153C85.1228 8.9134 85.2462 9.36854 85.2462 9.87694C85.2462 10.3853 85.1228 10.8429 84.8758 11.2496C84.6289 11.6515 84.2875 11.9662 83.8518 12.1938C83.416 12.4214 82.9245 12.5352 82.3774 12.5352ZM82.3774 11.1479C82.5904 11.1479 82.7817 11.0971 82.9512 10.9954C83.1255 10.8889 83.2635 10.7412 83.3651 10.5524C83.4668 10.3587 83.5177 10.1336 83.5177 9.87694C83.5177 9.62032 83.4668 9.39759 83.3651 9.20876C83.2635 9.01508 83.1255 8.86741 82.9512 8.76573C82.7817 8.6592 82.5904 8.60594 82.3774 8.60594C82.1644 8.60594 81.9707 8.6592 81.7964 8.76573C81.6269 8.86741 81.4913 9.01508 81.3896 9.20876C81.288 9.39759 81.2371 9.62032 81.2371 9.87694C81.2371 10.1336 81.288 10.3587 81.3896 10.5524C81.4913 10.7412 81.6269 10.8889 81.7964 10.9954C81.9707 11.0971 82.1644 11.1479 82.3774 11.1479ZM90.7365 7.33494V12.4189H89.0733V11.8742C88.7295 12.3148 88.2599 12.5352 87.6643 12.5352C87.0688 12.5352 86.6064 12.3391 86.2771 11.9469C85.9479 11.5547 85.7832 10.9978 85.7832 10.2764V7.33494H87.4973V10.2256C87.4973 10.5354 87.5626 10.7679 87.6934 10.9228C87.8241 11.0729 88.0057 11.1479 88.2381 11.1479C88.4656 11.1479 88.6521 11.0656 88.7973 10.901C88.9474 10.7315 89.0225 10.487 89.0225 10.1675V7.33494H90.7365ZM88.2889 7.04443C87.7273 7.04443 87.323 6.94033 87.076 6.73212C86.8291 6.52392 86.7056 6.21162 86.7056 5.79521H87.8459C87.8459 5.95984 87.8774 6.07847 87.9403 6.15109C88.0081 6.22372 88.1243 6.26004 88.2889 6.26004C88.4535 6.26004 88.5697 6.22372 88.6375 6.15109C88.7102 6.07847 88.7465 5.95984 88.7465 5.79521H89.8867C89.8867 6.21162 89.7609 6.52392 89.5091 6.73212C89.2573 6.94033 88.8506 7.04443 88.2889 7.04443ZM95.1526 9.80431L96.656 12.4189H94.7241L93.7509 10.5814H93.2715V12.4189H91.5575V7.33494H93.2715V9.23055H93.7944L94.8766 7.33494H96.6633L95.1526 9.80431ZM99.5558 12.5352C99.0086 12.5352 98.5172 12.4214 98.0814 12.1938C97.6456 11.9662 97.3043 11.6515 97.0573 11.2496C96.8104 10.8429 96.6869 10.3853 96.6869 9.87694C96.6869 9.36854 96.8104 8.9134 97.0573 8.51153C97.3043 8.1048 97.6456 7.78766 98.0814 7.56009C98.5172 7.33252 99.0086 7.21874 99.5558 7.21874C100.103 7.21874 100.594 7.33252 101.03 7.56009C101.466 7.78766 101.807 8.1048 102.054 8.51153C102.301 8.9134 102.425 9.36854 102.425 9.87694C102.425 10.3853 102.301 10.8429 102.054 11.2496C101.807 11.6515 101.466 11.9662 101.03 12.1938C100.594 12.4214 100.103 12.5352 99.5558 12.5352ZM99.5558 11.1479C99.7688 11.1479 99.9601 11.0971 100.13 10.9954C100.304 10.8889 100.442 10.7412 100.544 10.5524C100.645 10.3587 100.696 10.1336 100.696 9.87694C100.696 9.62032 100.645 9.39759 100.544 9.20876C100.442 9.01508 100.304 8.86741 100.13 8.76573C99.9601 8.6592 99.7688 8.60594 99.5558 8.60594C99.3427 8.60594 99.149 8.6592 98.9747 8.76573C98.8053 8.86741 98.6697 9.01508 98.568 9.20876C98.4663 9.39759 98.4155 9.62032 98.4155 9.87694C98.4155 10.1336 98.4663 10.3587 98.568 10.5524C98.6697 10.7412 98.8053 10.8889 98.9747 10.9954C99.149 11.0971 99.3427 11.1479 99.5558 11.1479ZM105.598 12.5352C105.061 12.5352 104.576 12.4238 104.145 12.2011C103.715 11.9735 103.376 11.6588 103.129 11.2569C102.887 10.8502 102.766 10.3902 102.766 9.87694C102.766 9.3637 102.887 8.90614 103.129 8.50426C103.376 8.09754 103.715 7.78282 104.145 7.56009C104.576 7.33252 105.061 7.21874 105.598 7.21874C106.092 7.21874 106.533 7.30589 106.92 7.4802C107.307 7.65451 107.627 7.90629 107.879 8.23554L106.796 9.2015C106.482 8.80446 106.111 8.60594 105.685 8.60594C105.327 8.60594 105.039 8.72215 104.821 8.95456C104.603 9.18213 104.494 9.48959 104.494 9.87694C104.494 10.2643 104.603 10.5742 104.821 10.8066C105.039 11.0342 105.327 11.1479 105.685 11.1479C106.111 11.1479 106.482 10.9494 106.796 10.5524L107.879 11.5184C107.627 11.8476 107.307 12.0994 106.92 12.2737C106.533 12.448 106.092 12.5352 105.598 12.5352ZM112.652 9.11434C112.26 8.89646 111.863 8.74636 111.461 8.66405V12.4189H109.747V8.66405C109.345 8.74636 108.948 8.89646 108.556 9.11434L107.99 7.89418C108.353 7.6763 108.76 7.50925 109.21 7.39304C109.66 7.27684 110.125 7.21874 110.604 7.21874C111.084 7.21874 111.549 7.27684 111.999 7.39304C112.449 7.50925 112.856 7.6763 113.219 7.89418L112.652 9.11434ZM116.309 8.8093C116.996 8.8093 117.524 8.96666 117.892 9.28139C118.265 9.59127 118.451 10.0391 118.451 10.625C118.451 11.2448 118.238 11.7217 117.812 12.0558C117.386 12.3851 116.774 12.5497 115.975 12.5497C115.19 12.5497 114.604 12.3851 114.217 12.0558C113.83 11.7266 113.636 11.2303 113.636 10.5669V7.33494H115.321V8.96182C115.495 8.90856 115.658 8.86983 115.808 8.84562C115.963 8.82141 116.13 8.8093 116.309 8.8093ZM116.062 11.2787C116.275 11.2787 116.439 11.2254 116.556 11.1189C116.672 11.0124 116.73 10.8599 116.73 10.6613C116.73 10.2498 116.478 10.044 115.975 10.044C115.733 10.044 115.515 10.0827 115.321 10.1602V10.5233C115.321 10.7654 115.384 10.9518 115.51 11.0826C115.641 11.2133 115.825 11.2787 116.062 11.2787Z" fill="white"/>
<path d="M9.97973 46.0381V51.1221H8.31653V50.5774C7.97276 51.018 7.50309 51.2383 6.90754 51.2383C6.31198 51.2383 5.84958 51.0422 5.52033 50.65C5.19108 50.2578 5.02646 49.701 5.02646 48.9795V46.0381H6.74049V48.9287C6.74049 49.2386 6.80586 49.471 6.93659 49.6259C7.06732 49.776 7.24889 49.8511 7.48131 49.8511C7.70887 49.8511 7.89529 49.7688 8.04055 49.6041C8.19064 49.4347 8.26569 49.1901 8.26569 48.8706V46.0381H9.97973ZM14.2506 48.4784C14.5217 48.5898 14.7323 48.752 14.8824 48.965C15.0374 49.178 15.1149 49.4201 15.1149 49.6913C15.1149 50.0109 15.0011 50.2893 14.7735 50.5265C14.5508 50.7589 14.2482 50.9381 13.8656 51.064C13.488 51.185 13.0667 51.2455 12.6019 51.2455C11.8611 51.2455 11.1566 51.0979 10.4884 50.8025L10.9896 49.6187C11.2268 49.7155 11.4737 49.7905 11.7304 49.8438C11.987 49.8922 12.2291 49.9164 12.4566 49.9164C12.7326 49.9164 12.9554 49.8777 13.1248 49.8002C13.2991 49.7228 13.3863 49.609 13.3863 49.4589C13.3863 49.2555 13.2193 49.1538 12.8852 49.1538H11.5125V47.9191H12.7399C12.8852 47.9191 12.9941 47.8925 13.0667 47.8393C13.1442 47.786 13.1829 47.7109 13.1829 47.6141C13.1829 47.4882 13.1151 47.3914 12.9796 47.3236C12.8488 47.2558 12.6745 47.2219 12.4566 47.2219C12.2533 47.2219 12.033 47.251 11.7957 47.3091C11.5585 47.3672 11.3333 47.4495 11.1203 47.556L10.6191 46.285C11.1808 46.0284 11.7909 45.9001 12.4494 45.9001C12.89 45.9001 13.2967 45.9606 13.6695 46.0816C14.0472 46.2027 14.3474 46.3794 14.5701 46.6118C14.7977 46.8394 14.9115 47.1081 14.9115 47.418C14.9115 47.6456 14.8534 47.8514 14.7372 48.0354C14.621 48.2193 14.4588 48.367 14.2506 48.4784ZM20.7354 46.0381V51.1221H19.0214V49.2483H17.4381V51.1221H15.724V46.0381H17.4381V47.8393H19.0214V46.0381H20.7354ZM24.2249 51.2383C23.6777 51.2383 23.1863 51.1245 22.7505 50.8969C22.3147 50.6694 21.9734 50.3546 21.7264 49.9527C21.4795 49.546 21.356 49.0885 21.356 48.5801C21.356 48.0717 21.4795 47.6165 21.7264 47.2147C21.9734 46.8079 22.3147 46.4908 22.7505 46.2632C23.1863 46.0356 23.6777 45.9219 24.2249 45.9219C24.772 45.9219 25.2635 46.0356 25.6992 46.2632C26.135 46.4908 26.4764 46.8079 26.7233 47.2147C26.9702 47.6165 27.0937 48.0717 27.0937 48.5801C27.0937 49.0885 26.9702 49.546 26.7233 49.9527C26.4764 50.3546 26.135 50.6694 25.6992 50.8969C25.2635 51.1245 24.772 51.2383 24.2249 51.2383ZM24.2249 49.8511C24.4379 49.8511 24.6292 49.8002 24.7986 49.6985C24.9729 49.592 25.1109 49.4443 25.2126 49.2555C25.3143 49.0618 25.3651 48.8367 25.3651 48.5801C25.3651 48.3234 25.3143 48.1007 25.2126 47.9119C25.1109 47.7182 24.9729 47.5705 24.7986 47.4689C24.6292 47.3623 24.4379 47.3091 24.2249 47.3091C24.0118 47.3091 23.8181 47.3623 23.6438 47.4689C23.4744 47.5705 23.3388 47.7182 23.2371 47.9119C23.1354 48.1007 23.0846 48.3234 23.0846 48.5801C23.0846 48.8367 23.1354 49.0618 23.2371 49.2555C23.3388 49.4443 23.4744 49.592 23.6438 49.6985C23.8181 49.8002 24.0118 49.8511 24.2249 49.8511ZM30.2671 51.2383C29.7297 51.2383 29.2455 51.1269 28.8145 50.9042C28.3836 50.6766 28.0447 50.3619 27.7977 49.96C27.5556 49.5533 27.4346 49.0933 27.4346 48.5801C27.4346 48.0668 27.5556 47.6093 27.7977 47.2074C28.0447 46.8007 28.3836 46.4859 28.8145 46.2632C29.2455 46.0356 29.7297 45.9219 30.2671 45.9219C30.761 45.9219 31.2016 46.009 31.589 46.1833C31.9763 46.3576 32.2959 46.6094 32.5477 46.9387L31.4655 47.9046C31.1508 47.5076 30.7804 47.3091 30.3543 47.3091C29.996 47.3091 29.7079 47.4253 29.49 47.6577C29.2721 47.8853 29.1632 48.1927 29.1632 48.5801C29.1632 48.9674 29.2721 49.2773 29.49 49.5097C29.7079 49.7373 29.996 49.8511 30.3543 49.8511C30.7804 49.8511 31.1508 49.6526 31.4655 49.2555L32.5477 50.2215C32.2959 50.5507 31.9763 50.8025 31.589 50.9768C31.2016 51.1511 30.761 51.2383 30.2671 51.2383ZM35.5447 51.2383C34.9976 51.2383 34.5061 51.1245 34.0704 50.8969C33.6346 50.6694 33.2932 50.3546 33.0463 49.9527C32.7994 49.546 32.6759 49.0885 32.6759 48.5801C32.6759 48.0717 32.7994 47.6165 33.0463 47.2147C33.2932 46.8079 33.6346 46.4908 34.0704 46.2632C34.5061 46.0356 34.9976 45.9219 35.5447 45.9219C36.0919 45.9219 36.5833 46.0356 37.0191 46.2632C37.4549 46.4908 37.7962 46.8079 38.0431 47.2147C38.2901 47.6165 38.4136 48.0717 38.4136 48.5801C38.4136 49.0885 38.2901 49.546 38.0431 49.9527C37.7962 50.3546 37.4549 50.6694 37.0191 50.8969C36.5833 51.1245 36.0919 51.2383 35.5447 51.2383ZM35.5447 49.8511C35.7578 49.8511 35.949 49.8002 36.1185 49.6985C36.2928 49.592 36.4308 49.4443 36.5325 49.2555C36.6342 49.0618 36.685 48.8367 36.685 48.5801C36.685 48.3234 36.6342 48.1007 36.5325 47.9119C36.4308 47.7182 36.2928 47.5705 36.1185 47.4689C35.949 47.3623 35.7578 47.3091 35.5447 47.3091C35.3317 47.3091 35.138 47.3623 34.9637 47.4689C34.7942 47.5705 34.6587 47.7182 34.557 47.9119C34.4553 48.1007 34.4045 48.3234 34.4045 48.5801C34.4045 48.8367 34.4553 49.0618 34.557 49.2555C34.6587 49.4443 34.7942 49.592 34.9637 49.6985C35.138 49.8002 35.3317 49.8511 35.5447 49.8511ZM41.587 51.2383C41.0495 51.2383 40.5653 51.1269 40.1344 50.9042C39.7035 50.6766 39.3645 50.3619 39.1176 49.96C38.8755 49.5533 38.7545 49.0933 38.7545 48.5801C38.7545 48.0668 38.8755 47.6093 39.1176 47.2074C39.3645 46.8007 39.7035 46.4859 40.1344 46.2632C40.5653 46.0356 41.0495 45.9219 41.587 45.9219C42.0808 45.9219 42.5215 46.009 42.9088 46.1833C43.2962 46.3576 43.6157 46.6094 43.8675 46.9387L42.7853 47.9046C42.4706 47.5076 42.1002 47.3091 41.6741 47.3091C41.3158 47.3091 41.0277 47.4253 40.8098 47.6577C40.592 47.8853 40.483 48.1927 40.483 48.5801C40.483 48.9674 40.592 49.2773 40.8098 49.5097C41.0277 49.7373 41.3158 49.8511 41.6741 49.8511C42.1002 49.8511 42.4706 49.6526 42.7853 49.2555L43.8675 50.2215C43.6157 50.5507 43.2962 50.8025 42.9088 50.9768C42.5215 51.1511 42.0808 51.2383 41.587 51.2383ZM48.6414 47.8175C48.2492 47.5996 47.8522 47.4495 47.4503 47.3672V51.1221H45.7363V47.3672C45.3344 47.4495 44.9374 47.5996 44.5452 47.8175L43.9787 46.5973C44.3418 46.3794 44.7485 46.2124 45.1988 46.0962C45.6491 45.98 46.1139 45.9219 46.5933 45.9219C47.0726 45.9219 47.5375 45.98 47.9878 46.0962C48.4381 46.2124 48.8448 46.3794 49.2079 46.5973L48.6414 47.8175ZM52.2195 51.2383C51.6724 51.2383 51.1809 51.1245 50.7452 50.8969C50.3094 50.6694 49.968 50.3546 49.7211 49.9527C49.4742 49.546 49.3507 49.0885 49.3507 48.5801C49.3507 48.0717 49.4742 47.6165 49.7211 47.2147C49.968 46.8079 50.3094 46.4908 50.7452 46.2632C51.1809 46.0356 51.6724 45.9219 52.2195 45.9219C52.7667 45.9219 53.2581 46.0356 53.6939 46.2632C54.1296 46.4908 54.471 46.8079 54.7179 47.2147C54.9649 47.6165 55.0883 48.0717 55.0883 48.5801C55.0883 49.0885 54.9649 49.546 54.7179 49.9527C54.471 50.3546 54.1296 50.6694 53.6939 50.8969C53.2581 51.1245 52.7667 51.2383 52.2195 51.2383ZM52.2195 49.8511C52.4326 49.8511 52.6238 49.8002 52.7933 49.6985C52.9676 49.592 53.1056 49.4443 53.2073 49.2555C53.3089 49.0618 53.3598 48.8367 53.3598 48.5801C53.3598 48.3234 53.3089 48.1007 53.2073 47.9119C53.1056 47.7182 52.9676 47.5705 52.7933 47.4689C52.6238 47.3623 52.4326 47.3091 52.2195 47.3091C52.0065 47.3091 51.8128 47.3623 51.6385 47.4689C51.469 47.5705 51.3334 47.7182 51.2318 47.9119C51.1301 48.1007 51.0792 48.3234 51.0792 48.5801C51.0792 48.8367 51.1301 49.0618 51.2318 49.2555C51.3334 49.4443 51.469 49.592 51.6385 49.6985C51.8128 49.8002 52.0065 49.8511 52.2195 49.8511ZM60.5786 46.0381V51.1221H58.9154V50.5774C58.5716 51.018 58.102 51.2383 57.5064 51.2383C56.9109 51.2383 56.4485 51.0422 56.1192 50.65C55.79 50.2578 55.6253 49.701 55.6253 48.9795V46.0381H57.3394V48.9287C57.3394 49.2386 57.4047 49.471 57.5355 49.6259C57.6662 49.776 57.8478 49.8511 58.0802 49.8511C58.3078 49.8511 58.4942 49.7688 58.6394 49.6041C58.7895 49.4347 58.8646 49.1901 58.8646 48.8706V46.0381H60.5786ZM58.131 45.7476C57.5694 45.7476 57.1651 45.6435 56.9181 45.4352C56.6712 45.227 56.5477 44.9147 56.5477 44.4983H57.688C57.688 44.663 57.7195 44.7816 57.7824 44.8542C57.8502 44.9268 57.9664 44.9632 58.131 44.9632C58.2957 44.9632 58.4119 44.9268 58.4796 44.8542C58.5523 44.7816 58.5886 44.663 58.5886 44.4983H59.7289C59.7289 44.9147 59.603 45.227 59.3512 45.4352C59.0994 45.6435 58.6927 45.7476 58.131 45.7476ZM64.9947 48.5074L66.4981 51.1221H64.5662L63.593 49.2846H63.1136V51.1221H61.3996V46.0381H63.1136V47.9337H63.6366L64.7187 46.0381H66.5054L64.9947 48.5074ZM69.3979 51.2383C68.8508 51.2383 68.3593 51.1245 67.9235 50.8969C67.4878 50.6694 67.1464 50.3546 66.8995 49.9527C66.6525 49.546 66.5291 49.0885 66.5291 48.5801C66.5291 48.0717 66.6525 47.6165 66.8995 47.2147C67.1464 46.8079 67.4878 46.4908 67.9235 46.2632C68.3593 46.0356 68.8508 45.9219 69.3979 45.9219C69.945 45.9219 70.4365 46.0356 70.8722 46.2632C71.308 46.4908 71.6494 46.8079 71.8963 47.2147C72.1432 47.6165 72.2667 48.0717 72.2667 48.5801C72.2667 49.0885 72.1432 49.546 71.8963 49.9527C71.6494 50.3546 71.308 50.6694 70.8722 50.8969C70.4365 51.1245 69.945 51.2383 69.3979 51.2383ZM69.3979 49.8511C69.6109 49.8511 69.8022 49.8002 69.9717 49.6985C70.146 49.592 70.284 49.4443 70.3856 49.2555C70.4873 49.0618 70.5382 48.8367 70.5382 48.5801C70.5382 48.3234 70.4873 48.1007 70.3856 47.9119C70.284 47.7182 70.146 47.5705 69.9717 47.4689C69.8022 47.3623 69.6109 47.3091 69.3979 47.3091C69.1848 47.3091 68.9912 47.3623 68.8169 47.4689C68.6474 47.5705 68.5118 47.7182 68.4101 47.9119C68.3085 48.1007 68.2576 48.3234 68.2576 48.5801C68.2576 48.8367 68.3085 49.0618 68.4101 49.2555C68.5118 49.4443 68.6474 49.592 68.8169 49.6985C68.9912 49.8002 69.1848 49.8511 69.3979 49.8511ZM75.4401 51.2383C74.9027 51.2383 74.4185 51.1269 73.9876 50.9042C73.5566 50.6766 73.2177 50.3619 72.9708 49.96C72.7287 49.5533 72.6076 49.0933 72.6076 48.5801C72.6076 48.0668 72.7287 47.6093 72.9708 47.2074C73.2177 46.8007 73.5566 46.4859 73.9876 46.2632C74.4185 46.0356 74.9027 45.9219 75.4401 45.9219C75.934 45.9219 76.3746 46.009 76.762 46.1833C77.1493 46.3576 77.4689 46.6094 77.7207 46.9387L76.6385 47.9046C76.3238 47.5076 75.9534 47.3091 75.5273 47.3091C75.169 47.3091 74.8809 47.4253 74.663 47.6577C74.4451 47.8853 74.3362 48.1927 74.3362 48.5801C74.3362 48.9674 74.4451 49.2773 74.663 49.5097C74.8809 49.7373 75.169 49.8511 75.5273 49.8511C75.9534 49.8511 76.3238 49.6526 76.6385 49.2555L77.7207 50.2215C77.4689 50.5507 77.1493 50.8025 76.762 50.9768C76.3746 51.1511 75.934 51.2383 75.4401 51.2383ZM82.4946 47.8175C82.1024 47.5996 81.7054 47.4495 81.3035 47.3672V51.1221H79.5894V47.3672C79.1876 47.4495 78.7905 47.5996 78.3983 47.8175L77.8318 46.5973C78.195 46.3794 78.6017 46.2124 79.052 46.0962C79.5023 45.98 79.9671 45.9219 80.4465 45.9219C80.9258 45.9219 81.3906 45.98 81.8409 46.0962C82.2912 46.2124 82.6979 46.3794 83.0611 46.5973L82.4946 47.8175ZM86.1509 47.5124C86.8384 47.5124 87.3662 47.6698 87.7342 47.9845C88.107 48.2944 88.2934 48.7423 88.2934 49.3281C88.2934 49.9479 88.0804 50.4248 87.6543 50.7589C87.2282 51.0882 86.6157 51.2528 85.8168 51.2528C85.0324 51.2528 84.4465 51.0882 84.0592 50.7589C83.6718 50.4297 83.4781 49.9334 83.4781 49.27V46.0381H85.1631V47.6649C85.3374 47.6117 85.4996 47.573 85.6497 47.5487C85.8047 47.5245 85.9717 47.5124 86.1509 47.5124ZM85.9039 49.9818C86.117 49.9818 86.2816 49.9285 86.3978 49.822C86.514 49.7155 86.5721 49.563 86.5721 49.3645C86.5721 48.9529 86.3203 48.7471 85.8168 48.7471C85.5747 48.7471 85.3568 48.7858 85.1631 48.8633V49.2265C85.1631 49.4686 85.2261 49.655 85.352 49.7857C85.4827 49.9164 85.6667 49.9818 85.9039 49.9818Z" fill="white"/>
<path d="M66.7198 27.0515C66.0712 23.7089 62.76 19.5439 62.76 19.5439C62.76 19.5439 58.9133 23.5765 58.175 27.0515C57.6946 29.3126 57.0966 31.0367 58.175 33.0099C59.236 34.9513 60.7618 35.7715 62.76 35.6316C64.5435 35.5067 65.77 34.7408 66.7198 33.0099C67.8012 31.0389 67.1605 29.3232 66.7198 27.0515Z" stroke="white" stroke-width="1.5131"/>
</svg>
