<svg width="125" height="57" viewBox="0 0 125 57" fill="none" xmlns="http://www.w3.org/2000/svg">
<path d="M124.248 0.69043H61.4119C39.2023 1.36278 19.9008 12.2097 9.21431 28.1745C9.1636 28.2474 9.11541 28.3226 9.0647 28.4096L8.84162 28.7458C8.50358 29.2724 8.16553 29.8053 7.82749 30.3444C2.90895 38.4557 0.323678 47.6038 0.320312 56.9093H65.0729C97.7586 55.8867 123.946 31.367 124.238 1.16531C124.238 1.01015 124.238 0.852645 124.238 0.695136L124.248 0.69043Z" fill="#6D9033"/>
<path d="M41.0388 14.6805V24.4248H38.7837V16.4901H36.8348V14.6805H41.0388ZM46.9077 24.5919C46.1003 24.5919 45.3811 24.3923 44.75 23.9933C44.1189 23.5942 43.6225 23.0188 43.2605 22.2671C42.9079 21.5061 42.7315 20.6013 42.7315 19.5526C42.7315 18.504 42.9079 17.6038 43.2605 16.8521C43.6225 16.0911 44.1189 15.5111 44.75 15.112C45.3811 14.7129 46.1003 14.5134 46.9077 14.5134C47.7151 14.5134 48.4343 14.7129 49.0654 15.112C49.6964 15.5111 50.1883 16.0911 50.5409 16.8521C50.9029 17.6038 51.0838 18.504 51.0838 19.5526C51.0838 20.6013 50.9029 21.5061 50.5409 22.2671C50.1883 23.0188 49.6964 23.5942 49.0654 23.9933C48.4343 24.3923 47.7151 24.5919 46.9077 24.5919ZM46.9077 22.6847C47.5016 22.6847 47.9656 22.4295 48.2997 21.9191C48.6431 21.4087 48.8148 20.6199 48.8148 19.5526C48.8148 18.4854 48.6431 17.6966 48.2997 17.1862C47.9656 16.6757 47.5016 16.4205 46.9077 16.4205C46.323 16.4205 45.859 16.6757 45.5156 17.1862C45.1815 17.6966 45.0145 18.4854 45.0145 19.5526C45.0145 20.6199 45.1815 21.4087 45.5156 21.9191C45.859 22.4295 46.323 22.6847 46.9077 22.6847ZM63.806 16.9356V24.4248H61.6344V18.7174H59.2679L59.1983 20.0399C59.1612 21.0236 59.0684 21.8402 58.9199 22.4899C58.7714 23.1395 58.5301 23.6499 58.196 24.0211C57.8619 24.3923 57.3979 24.5779 56.804 24.5779C56.4884 24.5779 56.1126 24.5222 55.6764 24.4109L55.7878 22.6291C55.9362 22.6476 56.043 22.6569 56.1079 22.6569C56.4327 22.6569 56.674 22.5409 56.8318 22.3089C56.9988 22.0676 57.1102 21.766 57.1659 21.4041C57.2216 21.0328 57.2633 20.5456 57.2912 19.9424L57.4025 16.9356H63.806ZM69.6249 22.7961C70.0147 22.7961 70.3581 22.7404 70.6551 22.6291C70.9613 22.5084 71.2444 22.3228 71.5042 22.0722L72.6596 23.3251C71.9543 24.1325 70.9242 24.5362 69.5693 24.5362C68.7247 24.5362 67.9777 24.3738 67.3281 24.049C66.6784 23.7149 66.1773 23.2555 65.8246 22.6708C65.472 22.0862 65.2957 21.4226 65.2957 20.6802C65.2957 19.947 65.4674 19.2881 65.8107 18.7035C66.1634 18.1095 66.6413 17.6502 67.2445 17.3254C67.857 16.9913 68.5438 16.8242 69.3048 16.8242C70.0194 16.8242 70.669 16.9773 71.2536 17.2836C71.8383 17.5806 72.3023 18.0167 72.6457 18.5921C72.9983 19.1582 73.1747 19.831 73.1747 20.6106L67.6343 21.6825C67.7921 22.0537 68.038 22.3321 68.3721 22.5177C68.7155 22.7033 69.1331 22.7961 69.6249 22.7961ZM69.3048 18.4668C68.7572 18.4668 68.3118 18.6432 67.9684 18.9958C67.625 19.3485 67.4441 19.8357 67.4255 20.4575L71.0727 19.7475C70.9706 19.3577 70.7618 19.0469 70.4462 18.8148C70.1307 18.5828 69.7502 18.4668 69.3048 18.4668ZM84.2534 16.8242C85.1907 16.8242 85.9332 17.1026 86.4807 17.6594C87.0375 18.207 87.3159 19.0329 87.3159 20.1373V24.4248H85.1443V20.4714C85.1443 19.8774 85.019 19.4366 84.7685 19.1489C84.5272 18.852 84.1792 18.7035 83.7244 18.7035C83.214 18.7035 82.8103 18.8705 82.5134 19.2046C82.2164 19.5294 82.0679 20.0167 82.0679 20.6663V24.4248H79.8963V20.4714C79.8963 19.2928 79.423 18.7035 78.4764 18.7035C77.9753 18.7035 77.5762 18.8705 77.2792 19.2046C76.9823 19.5294 76.8338 20.0167 76.8338 20.6663V24.4248H74.6622V16.9356H76.7363V17.7987C77.0148 17.4831 77.3535 17.2418 77.7525 17.0748C78.1609 16.9077 78.6063 16.8242 79.0889 16.8242C79.6179 16.8242 80.0958 16.9309 80.5227 17.1444C80.9496 17.3486 81.293 17.6502 81.5528 18.0492C81.8591 17.6594 82.2442 17.3578 82.7082 17.1444C83.1815 16.9309 83.6966 16.8242 84.2534 16.8242ZM30.2413 35.7174H26.3992V41.4248H24.2415V33.9356H30.2413V35.7174ZM38.6383 33.9356V41.4248H36.5641V40.5617C36.0258 41.2114 35.2463 41.5362 34.2255 41.5362C33.5202 41.5362 32.8798 41.3784 32.3044 41.0629C31.7383 40.7473 31.2929 40.2972 30.9681 39.7126C30.6433 39.1279 30.4809 38.4505 30.4809 37.6802C30.4809 36.9099 30.6433 36.2325 30.9681 35.6478C31.2929 35.0631 31.7383 34.613 32.3044 34.2975C32.8798 33.982 33.5202 33.8242 34.2255 33.8242C35.1813 33.8242 35.9284 34.1258 36.4667 34.7291V33.9356H38.6383ZM34.6013 39.7543C35.1489 39.7543 35.6036 39.5687 35.9655 39.1975C36.3275 38.817 36.5084 38.3113 36.5084 37.6802C36.5084 37.0491 36.3275 36.548 35.9655 36.1768C35.6036 35.7963 35.1489 35.606 34.6013 35.606C34.0445 35.606 33.5851 35.7963 33.2232 36.1768C32.8613 36.548 32.6803 37.0491 32.6803 37.6802C32.6803 38.3113 32.8613 38.817 33.2232 39.1975C33.5851 39.5687 34.0445 39.7543 34.6013 39.7543ZM44.5326 33.8242C45.3307 33.8242 46.0267 33.982 46.6207 34.2975C47.2146 34.613 47.674 35.0631 47.9988 35.6478C48.3236 36.2325 48.486 36.9146 48.486 37.6941C48.486 38.4551 48.3329 39.1279 48.0267 39.7126C47.7204 40.288 47.2889 40.7381 46.732 41.0629C46.1752 41.3784 45.5349 41.5362 44.811 41.5362C43.8551 41.5362 43.1081 41.2346 42.5698 40.6313V44.1254H40.3982V37.708C40.3982 36.9378 40.5699 36.2603 40.9133 35.6756C41.2567 35.091 41.7392 34.6362 42.361 34.3114C42.9828 33.9866 43.7067 33.8242 44.5326 33.8242ZM44.4352 39.7543C45.0013 39.7543 45.4606 39.5641 45.8133 39.1836C46.1659 38.8031 46.3423 38.3066 46.3423 37.6941C46.3423 37.0723 46.1659 36.5712 45.8133 36.1907C45.4606 35.8009 45.0013 35.606 44.4352 35.606C43.8691 35.606 43.4097 35.7963 43.057 36.1768C42.7137 36.5573 42.542 37.0584 42.542 37.6802C42.542 38.302 42.7137 38.8031 43.057 39.1836C43.4004 39.5641 43.8598 39.7543 44.4352 39.7543ZM57.575 33.9356V41.4248H55.5009V40.5617C54.9626 41.2114 54.1831 41.5362 53.1622 41.5362C52.4569 41.5362 51.8166 41.3784 51.2412 41.0629C50.6751 40.7473 50.2296 40.2972 49.9048 39.7126C49.58 39.1279 49.4176 38.4505 49.4176 37.6802C49.4176 36.9099 49.58 36.2325 49.9048 35.6478C50.2296 35.0631 50.6751 34.613 51.2412 34.2975C51.8166 33.982 52.4569 33.8242 53.1622 33.8242C54.1181 33.8242 54.8652 34.1258 55.4034 34.7291V33.9356H57.575ZM53.5381 39.7543C54.0856 39.7543 54.5404 39.5687 54.9023 39.1975C55.2642 38.817 55.4452 38.3113 55.4452 37.6802C55.4452 37.0491 55.2642 36.548 54.9023 36.1768C54.5404 35.7963 54.0856 35.606 53.5381 35.606C52.9813 35.606 52.5219 35.7963 52.1599 36.1768C51.798 36.548 51.617 37.0491 51.617 37.6802C51.617 38.3113 51.798 38.817 52.1599 39.1975C52.5219 39.5687 52.9813 39.7543 53.5381 39.7543ZM59.6273 33.9356H61.785V36.8589H65.0424V33.9356H67.214V41.4248H65.0424V38.6268H61.785V41.4248H59.6273V33.9356ZM78.8701 33.8242C79.8074 33.8242 80.5498 34.1026 81.0974 34.6594C81.6542 35.207 81.9326 36.0329 81.9326 37.1373V41.4248H79.761V37.4714C79.761 36.8774 79.6357 36.4366 79.3852 36.1489C79.1439 35.852 78.7959 35.7035 78.3411 35.7035C77.8307 35.7035 77.427 35.8705 77.13 36.2046C76.8331 36.5294 76.6846 37.0167 76.6846 37.6663V41.4248H74.513V37.4714C74.513 36.2928 74.0397 35.7035 73.0931 35.7035C72.592 35.7035 72.1929 35.8705 71.8959 36.2046C71.599 36.5294 71.4505 37.0167 71.4505 37.6663V41.4248H69.2789V33.9356H71.353V34.7987C71.6314 34.4831 71.9702 34.2418 72.3692 34.0748C72.7776 33.9077 73.223 33.8242 73.7056 33.8242C74.2346 33.8242 74.7125 33.9309 75.1394 34.1444C75.5663 34.3486 75.9097 34.6502 76.1695 35.0492C76.4758 34.6594 76.8609 34.3578 77.3249 34.1444C77.7982 33.9309 78.3133 33.8242 78.8701 33.8242ZM91.2168 33.9356V41.4248H89.1427V40.5478C88.8642 40.8726 88.5209 41.1186 88.1125 41.2856C87.7135 41.4526 87.2866 41.5362 86.8319 41.5362C85.8481 41.5362 85.064 41.2531 84.4793 40.687C83.9039 40.1209 83.6162 39.281 83.6162 38.1674V33.9356H85.7878V37.8472C85.7878 39.0537 86.2936 39.6569 87.3051 39.6569C87.8341 39.6569 88.2564 39.4899 88.5719 39.1558C88.8874 38.8124 89.0452 38.3066 89.0452 37.6384V33.9356H91.2168ZM100.678 33.9356V41.4248H98.6042V40.5478C98.3258 40.8726 97.9824 41.1186 97.5741 41.2856C97.1751 41.4526 96.7482 41.5362 96.2934 41.5362C95.3097 41.5362 94.5255 41.2531 93.9409 40.687C93.3655 40.1209 93.0778 39.281 93.0778 38.1674V33.9356H95.2494V37.8472C95.2494 39.0537 95.7552 39.6569 96.7667 39.6569C97.2957 39.6569 97.718 39.4899 98.0335 39.1558C98.349 38.8124 98.5068 38.3066 98.5068 37.6384V33.9356H100.678Z" fill="white"/>
</svg>
