<svg width="125" height="57" viewBox="0 0 125 57" fill="none" xmlns="http://www.w3.org/2000/svg">
<path d="M124.248 0.293945H61.4119C39.2023 0.966296 19.9008 11.8132 9.21431 27.7781C9.1636 27.8509 9.11541 27.9262 9.0647 28.0131L8.84162 28.3493C8.50358 28.8759 8.16553 29.4088 7.82749 29.9479C2.90895 38.0592 0.323678 47.2074 0.320312 56.5128H65.0729C97.7586 55.4902 123.946 30.9706 124.238 0.768827C124.238 0.613669 124.238 0.45616 124.238 0.298652L124.248 0.293945Z" fill="#6D9033"/>
<path d="M49.7656 26.2012H56.3874" stroke="white" stroke-width="0.907858" stroke-linecap="round" stroke-linejoin="round"/>
<path d="M51.2188 20.3574H56.2254" stroke="white" stroke-width="0.907858" stroke-linecap="round" stroke-linejoin="round"/>
<path d="M47.8281 23.3545H57.8415" stroke="white" stroke-width="0.907858" stroke-linecap="round" stroke-linejoin="round"/>
<path d="M54.381 17.8105H69.9529V31.7462H53.1562V29.1428" stroke="white" stroke-width="0.907858" stroke-linecap="round" stroke-linejoin="round"/>
<path d="M81.016 31.8955H53.1562V35.342H81.016V31.8955Z" stroke="white" stroke-width="0.907858" stroke-linecap="round" stroke-linejoin="round"/>
<path d="M76.9258 36.3913C76.9258 37.9299 75.5708 39.234 73.8266 39.234C72.0823 39.234 70.7274 37.9299 70.7274 36.3913C70.7274 34.8528 72.0823 33.5487 73.8266 33.5487C75.5708 33.5487 76.9258 34.8528 76.9258 36.3913Z" fill="#6D9033" stroke="white" stroke-width="0.907858" stroke-linecap="round" stroke-linejoin="round"/>
<path d="M64.0039 36.3913C64.0039 37.9299 62.649 39.234 60.9047 39.234C59.1604 39.234 57.8055 37.9299 57.8055 36.3913C57.8055 34.8528 59.1604 33.5487 60.9047 33.5487C62.649 33.5487 64.0039 34.8528 64.0039 36.3913Z" fill="#6D9033" stroke="white" stroke-width="0.907858" stroke-linecap="round" stroke-linejoin="round"/>
<path d="M74.4675 22.1553H69.9453V31.7454H80.9277C80.9277 31.7454 81.0579 30.1855 80.9277 29.198C80.7605 27.9294 80.4777 27.2351 79.9587 26.0513C79.5867 25.2028 79.4628 24.655 78.8281 23.9534C77.6301 22.6291 74.4675 22.1553 74.4675 22.1553Z" stroke="white" stroke-width="0.907858" stroke-linecap="round" stroke-linejoin="round"/>
<path d="M73.8301 22.3057C73.8301 24.0027 72.9819 25.1477 73.8301 26.6512L74.6377 27.7001C74.6377 27.7001 75.5863 28.2356 76.2527 28.4493C77.9218 28.9847 80.7749 28.4493 80.7749 28.4493" stroke="white" stroke-width="0.907858" stroke-linecap="round" stroke-linejoin="round"/>
<path d="M42.3251 7.60023H48.2032V9.32395H44.5717V10.1083H46.1889C47.0153 10.1083 47.648 10.2859 48.087 10.641C48.5324 10.9896 48.7551 11.4964 48.7551 12.1613C48.7551 12.8521 48.5034 13.3944 47.9998 13.7882C47.4963 14.182 46.7958 14.3789 45.8984 14.3789H42.3251V7.60023ZM45.7435 12.7811C45.9694 12.7811 46.1437 12.7327 46.2664 12.6358C46.3955 12.539 46.4601 12.4002 46.4601 12.2194C46.4601 11.8708 46.2212 11.6965 45.7435 11.6965H44.5717V12.7811H45.7435ZM55.6124 13.9335C55.2509 14.1207 54.8151 14.2692 54.3051 14.3789C53.7951 14.4822 53.2754 14.5338 52.746 14.5338C51.9842 14.5338 51.3354 14.4467 50.7996 14.2724C50.2702 14.0916 49.8699 13.8431 49.5988 13.5267C49.3276 13.2039 49.1921 12.836 49.1921 12.4228C49.1921 12.0806 49.2824 11.774 49.4632 11.5028C49.6504 11.2317 49.9151 11.0218 50.2573 10.8734C49.999 10.7313 49.8021 10.5473 49.6666 10.3214C49.5374 10.089 49.4729 9.83397 49.4729 9.55637C49.4729 9.17547 49.5955 8.82685 49.8409 8.51051C50.0926 8.18772 50.4735 7.92948 50.9836 7.73581C51.5 7.54213 52.1327 7.44529 52.8816 7.44529C53.34 7.44529 53.7886 7.48726 54.2276 7.57118C54.6731 7.64865 55.0701 7.75518 55.4187 7.89075L54.799 9.55637C54.1921 9.31104 53.5821 9.18838 52.9687 9.18838C52.5685 9.18838 52.2683 9.23357 52.0681 9.32395C51.8745 9.41434 51.7776 9.54023 51.7776 9.70162C51.7776 9.8372 51.8261 9.94049 51.9229 10.0115C52.0197 10.0825 52.1811 10.118 52.4071 10.118H54.3923V11.803H52.2521C52.0004 11.803 51.8099 11.845 51.6808 11.9289C51.5581 12.0064 51.4968 12.1193 51.4968 12.2678C51.4968 12.6165 51.9423 12.7908 52.8332 12.7908C53.1753 12.7908 53.5369 12.7456 53.9178 12.6552C54.3051 12.5583 54.6473 12.4325 54.9442 12.2775L55.6124 13.9335ZM59.5408 14.5338C58.8242 14.5338 58.1786 14.3854 57.604 14.0884C57.0295 13.785 56.5776 13.3653 56.2483 12.8295C55.9255 12.2872 55.7641 11.6739 55.7641 10.9896C55.7641 10.3052 55.9255 9.69517 56.2483 9.15933C56.5776 8.61703 57.0295 8.1974 57.604 7.90043C58.1786 7.59701 58.8242 7.44529 59.5408 7.44529C60.1993 7.44529 60.7868 7.5615 61.3033 7.79391C61.8197 8.02632 62.2458 8.36203 62.5815 8.80103L61.1386 10.089C60.719 9.55959 60.2251 9.2949 59.657 9.2949C59.1793 9.2949 58.7951 9.44984 58.5046 9.75973C58.2141 10.0632 58.0689 10.4731 58.0689 10.9896C58.0689 11.506 58.2141 11.9192 58.5046 12.2291C58.7951 12.5325 59.1793 12.6842 59.657 12.6842C60.2251 12.6842 60.719 12.4195 61.1386 11.8902L62.5815 13.1781C62.2458 13.6171 61.8197 13.9528 61.3033 14.1852C60.7868 14.4176 60.1993 14.5338 59.5408 14.5338ZM69.828 7.60023V14.3789H67.5813V9.37237H65.5187V14.3789H63.272V7.60023H69.828ZM74.6097 7.44529C75.2488 7.44529 75.8137 7.57118 76.3043 7.82296C76.795 8.07474 77.1759 8.44273 77.447 8.92692C77.7246 9.40465 77.8634 9.976 77.8634 10.641V14.3789H75.578V10.4473C75.578 10.0664 75.4877 9.77909 75.3069 9.58542C75.1326 9.39174 74.9002 9.2949 74.6097 9.2949C74.3127 9.2949 74.0738 9.39174 73.8931 9.58542C73.7187 9.77909 73.6316 10.0664 73.6316 10.4473V14.3789H70.5909L70.5812 12.6068H71.3462V10.641C71.3462 9.976 71.4818 9.40465 71.7529 8.92692C72.0305 8.44273 72.4147 8.07474 72.9053 7.82296C73.3959 7.57118 73.9641 7.44529 74.6097 7.44529ZM82.1481 7.44529C82.8066 7.44529 83.3876 7.57764 83.8911 7.84233C84.3947 8.10056 84.7853 8.48146 85.0629 8.98502C85.3469 9.48212 85.489 10.0761 85.489 10.7668V14.3789H83.2036V13.0135H81.0538V14.3789H78.8071V10.7668C78.8071 10.0761 78.9459 9.48212 79.2235 8.98502C79.5076 8.48146 79.9014 8.10056 80.405 7.84233C80.9085 7.57764 81.4896 7.44529 82.1481 7.44529ZM83.2036 11.2898V10.5732C83.2036 10.1535 83.1035 9.8372 82.9034 9.62415C82.7097 9.40465 82.4515 9.2949 82.1287 9.2949C81.8059 9.2949 81.5444 9.40465 81.3443 9.62415C81.1506 9.8372 81.0538 10.1535 81.0538 10.5732V11.2898H83.2036ZM92.1633 9.97277C91.6404 9.68226 91.111 9.48212 90.5752 9.37237V14.3789H88.2898V9.37237C87.7539 9.48212 87.2246 9.68226 86.7016 9.97277L85.9463 8.34589C86.4305 8.05537 86.9728 7.83265 87.5732 7.6777C88.1736 7.52276 88.7933 7.44529 89.4325 7.44529C90.0716 7.44529 90.6914 7.52276 91.2918 7.6777C91.8922 7.83265 92.4345 8.05537 92.9187 8.34589L92.1633 9.97277ZM100.263 7.60023V14.3789H97.9777V11.8805H95.8666V14.3789H93.5812V7.60023H95.8666V10.0018H97.9777V7.60023H100.263ZM104.703 7.44529C105.361 7.44529 105.942 7.57764 106.446 7.84233C106.949 8.10056 107.34 8.48146 107.617 8.98502C107.902 9.48212 108.044 10.0761 108.044 10.7668V14.3789H105.758V13.0135H103.608V14.3789H101.362V10.7668C101.362 10.0761 101.501 9.48212 101.778 8.98502C102.062 8.48146 102.456 8.10056 102.96 7.84233C103.463 7.57764 104.044 7.44529 104.703 7.44529ZM105.758 11.2898V10.5732C105.758 10.1535 105.658 9.8372 105.458 9.62415C105.264 9.40465 105.006 9.2949 104.683 9.2949C104.36 9.2949 104.099 9.40465 103.899 9.62415C103.705 9.8372 103.608 10.1535 103.608 10.5732V11.2898H105.758ZM114.989 7.60023V14.3789H112.742V12.7714H112.132L111.096 14.3789H108.704L110.041 12.4421C109.602 12.2356 109.263 11.945 109.024 11.5706C108.791 11.1897 108.675 10.741 108.675 10.2245C108.675 9.68871 108.801 9.22389 109.053 8.83008C109.311 8.43627 109.676 8.13284 110.147 7.9198C110.618 7.70676 111.174 7.60023 111.813 7.60023H114.989ZM111.851 9.36269C111.27 9.36269 110.98 9.63706 110.98 10.1858C110.98 10.7604 111.27 11.0477 111.851 11.0477H112.742V9.36269H111.851Z" fill="white"/>
<path d="M21.0124 48.2034V51.3023H18.9206V49.9756H14.8341V51.3023H12.7424V48.2034H13.5364V46.2376C13.5364 45.5727 13.6752 45.0013 13.9528 44.5236C14.2369 44.0394 14.6307 43.6714 15.1343 43.4196C15.6378 43.1679 16.2189 43.042 16.8774 43.042C17.5359 43.042 18.1169 43.1679 18.6204 43.4196C19.124 43.6714 19.5146 44.0394 19.7922 44.5236C20.0762 45.0013 20.2183 45.5727 20.2183 46.2376V48.2034H21.0124ZM17.9329 48.2034V46.044C17.9329 45.6631 17.8361 45.3758 17.6424 45.1821C17.4552 44.9884 17.2002 44.8916 16.8774 44.8916C16.5546 44.8916 16.2963 44.9884 16.1027 45.1821C15.9154 45.3758 15.8218 45.6631 15.8218 46.044V48.2034H17.9329ZM25.2219 50.1305C24.4923 50.1305 23.8371 49.9788 23.256 49.6754C22.675 49.372 22.2199 48.9523 21.8906 48.4165C21.5614 47.8742 21.3968 47.2641 21.3968 46.5862C21.3968 45.9084 21.5614 45.3015 21.8906 44.7657C22.2199 44.2234 22.675 43.8005 23.256 43.4971C23.8371 43.1937 24.4923 43.042 25.2219 43.042C25.9514 43.042 26.6066 43.1937 27.1877 43.4971C27.7687 43.8005 28.2238 44.2234 28.5531 44.7657C28.8823 45.3015 29.047 45.9084 29.047 46.5862C29.047 47.2641 28.8823 47.8742 28.5531 48.4165C28.2238 48.9523 27.7687 49.372 27.1877 49.6754C26.6066 49.9788 25.9514 50.1305 25.2219 50.1305ZM25.2219 48.2809C25.5059 48.2809 25.7609 48.2131 25.9869 48.0776C26.2193 47.9355 26.4033 47.7386 26.5389 47.4868C26.6744 47.2286 26.7422 46.9284 26.7422 46.5862C26.7422 46.2441 26.6744 45.9471 26.5389 45.6953C26.4033 45.4371 26.2193 45.2402 25.9869 45.1046C25.7609 44.9626 25.5059 44.8916 25.2219 44.8916C24.9378 44.8916 24.6796 44.9626 24.4472 45.1046C24.2212 45.2402 24.0404 45.4371 23.9049 45.6953C23.7693 45.9471 23.7015 46.2441 23.7015 46.5862C23.7015 46.9284 23.7693 47.2286 23.9049 47.4868C24.0404 47.7386 24.2212 47.9355 24.4472 48.0776C24.6796 48.2131 24.9378 48.2809 25.2219 48.2809ZM33.2782 50.1305C32.5616 50.1305 31.916 49.982 31.3414 49.6851C30.7669 49.3816 30.3149 48.962 29.9857 48.4262C29.6629 47.8839 29.5015 47.2706 29.5015 46.5862C29.5015 45.9019 29.6629 45.2918 29.9857 44.756C30.3149 44.2137 30.7669 43.7941 31.3414 43.4971C31.916 43.1937 32.5616 43.042 33.2782 43.042C33.9367 43.042 34.5242 43.1582 35.0406 43.3906C35.5571 43.623 35.9832 43.9587 36.3189 44.3977L34.876 45.6857C34.4564 45.1563 33.9625 44.8916 33.3944 44.8916C32.9167 44.8916 32.5325 45.0465 32.242 45.3564C31.9515 45.6598 31.8063 46.0698 31.8063 46.5862C31.8063 47.1027 31.9515 47.5159 32.242 47.8258C32.5325 48.1292 32.9167 48.2809 33.3944 48.2809C33.9625 48.2809 34.4564 48.0162 34.876 47.4868L36.3189 48.7748C35.9832 49.2138 35.5571 49.5495 35.0406 49.7819C34.5242 50.0143 33.9367 50.1305 33.2782 50.1305ZM42.6841 45.5694C42.1612 45.2789 41.6318 45.0788 41.096 44.9691V49.9756H38.8106V44.9691C38.2748 45.0788 37.7454 45.2789 37.2225 45.5694L36.4671 43.9426C36.9513 43.6521 37.4936 43.4293 38.094 43.2744C38.6944 43.1194 39.3142 43.042 39.9533 43.042C40.5924 43.042 41.2122 43.1194 41.8126 43.2744C42.413 43.4293 42.9553 43.6521 43.4395 43.9426L42.6841 45.5694ZM47.2419 43.042C47.9004 43.042 48.4814 43.1743 48.985 43.439C49.4885 43.6972 49.8791 44.0781 50.1567 44.5817C50.4408 45.0788 50.5828 45.6727 50.5828 46.3635V49.9756H48.2974V48.6102H46.1476V49.9756H43.901V46.3635C43.901 45.6727 44.0398 45.0788 44.3174 44.5817C44.6014 44.0781 44.9952 43.6972 45.4988 43.439C46.0023 43.1743 46.5834 43.042 47.2419 43.042ZM48.2974 46.8864V46.1698C48.2974 45.7502 48.1973 45.4339 47.9972 45.2208C47.8035 45.0013 47.5453 44.8916 47.2225 44.8916C46.8997 44.8916 46.6383 45.0013 46.4381 45.2208C46.2444 45.4339 46.1476 45.7502 46.1476 46.1698V46.8864H48.2974ZM56.8869 46.4216C57.2678 46.5572 57.5583 46.7606 57.7584 47.0317C57.9586 47.2964 58.0586 47.6224 58.0586 48.0098C58.0586 48.6166 57.8165 49.0976 57.3323 49.4527C56.8546 49.8013 56.1767 49.9756 55.2987 49.9756H51.677V43.1969H55.1147C55.954 43.1969 56.6028 43.3519 57.0612 43.6617C57.526 43.9716 57.7584 44.4074 57.7584 44.9691C57.7584 45.2918 57.681 45.5759 57.526 45.8212C57.3775 46.0666 57.1645 46.2667 56.8869 46.4216ZM53.9236 45.8019H54.892C55.2665 45.8019 55.4537 45.6372 55.4537 45.308C55.4537 44.9658 55.2665 44.7947 54.892 44.7947H53.9236V45.8019ZM55.1922 48.3778C55.5667 48.3778 55.7539 48.197 55.7539 47.8355C55.7539 47.4868 55.5667 47.3125 55.1922 47.3125H53.9236V48.3778H55.1922ZM63.609 46.4894L65.6136 49.9756H63.0377L61.7401 47.5256H61.1009V49.9756H58.8155V43.1969H61.1009V45.7244H61.7982L63.2411 43.1969H65.6233L63.609 46.4894ZM69.3709 43.042C70.0294 43.042 70.6104 43.1743 71.114 43.439C71.6176 43.6972 72.0081 44.0781 72.2857 44.5817C72.5698 45.0788 72.7118 45.6727 72.7118 46.3635V49.9756H70.4264V48.6102H68.2766V49.9756H66.03V46.3635C66.03 45.6727 66.1688 45.0788 66.4464 44.5817C66.7305 44.0781 67.1243 43.6972 67.6278 43.439C68.1314 43.1743 68.7124 43.042 69.3709 43.042ZM70.4264 46.8864V46.1698C70.4264 45.7502 70.3264 45.4339 70.1262 45.2208C69.9326 45.0013 69.6743 44.8916 69.3515 44.8916C69.0287 44.8916 68.7673 45.0013 68.5672 45.2208C68.3735 45.4339 68.2766 45.7502 68.2766 46.1698V46.8864H70.4264Z" fill="white"/>
</svg>
