<svg width="154" height="181" viewBox="0 0 154 181" fill="none" xmlns="http://www.w3.org/2000/svg">
<path d="M122.249 129.489C117.552 134.937 106.985 139.587 102.289 141.23L104.872 155.554C106.594 155.398 112.104 153.582 120.37 147.57C130.702 140.056 135.868 125.263 137.042 121.271C138.216 117.279 143.852 93.5621 130.702 90.2746C120.182 87.6447 117.399 98.9991 117.083 100.372C116.378 103.425 123.868 93.3959 128.119 96.8496C135.633 102.955 128.119 122.68 122.249 129.489Z" fill="#8FBB45" stroke="#719533" stroke-width="3"/>
<path d="M120.603 147.494C130.935 139.98 137.04 121.035 137.04 121.035C137.04 121.035 133.591 131.096 126.943 138.412C120.197 145.835 110.202 150.481 103.461 145.691L105.105 155.478C106.827 155.321 112.337 153.505 120.603 147.494Z" fill="#69573A" fill-opacity="0.5"/>
<path d="M45.4616 97.0831C50.8628 97.0831 63.4642 89.9603 71.0567 86.7511C71.0567 89.8038 70.4931 96.4726 68.2387 98.7269C65.4207 101.545 48.0446 106.711 42.8783 106.711C37.7119 106.711 29.9632 100.84 28.7893 100.371C27.6154 99.901 24.563 100.136 23.6237 100.371C22.3978 100.677 19.9446 99.694 17.9881 100.371C16.012 101.054 14.5147 103.051 12.8221 104.128C10.2391 105.771 6.58988 103.658 7.18641 101.075C7.6102 99.24 11.8667 99.4847 12.5872 99.1965C14.2327 98.5383 15.6393 97.318 15.1697 96.1439C13.2911 95.9091 10.004 94.2653 7.65582 95.4394C4.37548 97.0796 1.74112 96.2069 2.02032 92.8564C2.25514 90.0386 5.30786 89.8038 8.12568 90.2734C10.9435 90.743 13.914 90.2591 15.6393 89.569C13.7607 88.3949 12.8218 86.0467 9.29956 85.577C4.36837 85.577 3.55108 82.1973 6.48142 79.7066C8.60107 77.9049 10.004 79.4717 12.3522 81.8199C15.6613 84.1177 20.0648 86.5163 21.0401 86.5163C23.8581 86.5163 23.8581 84.1681 23.8581 82.5244C23.8581 80.8807 21.5098 75.7147 26.9108 76.4191C33.8063 77.3185 28.789 83.6985 29.2588 86.0467C29.6346 87.9252 31.842 88.8645 31.842 91.9171C35.286 93.4043 41.2353 97.0831 45.4616 97.0831Z" fill="#8FBB45" stroke="#719533" stroke-width="3"/>
<path d="M108.538 92.7843C103.137 92.7843 90.5358 85.6615 82.9433 82.4523C82.9433 85.505 83.5069 92.1738 85.7613 94.4281C88.5793 97.2459 105.955 102.412 111.122 102.412C116.288 102.412 124.037 96.5414 125.211 96.0718C126.385 95.6022 129.437 95.837 130.376 96.0718C131.602 96.3783 134.055 95.3951 136.012 96.0718C137.988 96.7552 139.485 98.7518 141.178 99.8289C143.761 101.473 147.41 99.3592 146.814 96.7762C146.39 94.9412 142.133 95.1859 141.413 94.8977C139.767 94.2395 138.361 93.0191 138.83 91.8451C140.709 91.6102 143.996 89.9665 146.344 91.1406C149.625 92.7808 152.259 91.9081 151.98 88.5576C151.745 85.7398 148.692 85.5049 145.874 85.9746C143.056 86.4442 140.086 85.9602 138.361 85.2701C140.239 84.096 141.178 81.7478 144.7 81.2782C149.632 81.2782 150.449 77.8985 147.519 75.4078C145.399 73.6061 143.996 75.1729 141.648 77.5211C138.339 79.8189 133.935 82.2175 132.96 82.2175C130.142 82.2175 130.142 79.8693 130.142 78.2256C130.142 76.5818 132.49 71.4158 127.089 72.1203C120.194 73.0197 125.211 79.3997 124.741 81.7479C124.365 83.6264 122.158 84.5657 122.158 87.6183C118.714 89.1055 112.765 92.7843 108.538 92.7843Z" fill="#8FBB45" stroke="#719533" stroke-width="3"/>
<path d="M68.7134 87.2229C69.8406 84.2172 69.8092 81.4307 69.6527 80.4131C77.6365 76.8909 93.4161 70.0341 92.6647 70.7856C91.7254 71.7248 88.6728 79.239 89.3772 83.9354C90.0817 88.6318 94.5433 102.956 94.3084 112.348C94.0736 121.741 98.5352 133.717 99.9441 135.361C101.353 137.004 109.806 140.057 109.806 148.745C109.806 155.696 103.701 163.226 100.649 166.122C103.075 165.261 104.265 165.699 111.216 167.766C113.714 168.508 117.802 169.023 118.965 170.114C119.904 169.409 123.943 168.376 125.07 170.818C126.479 173.871 124.223 175.515 120.843 175.28C120.587 175.806 120.139 176.558 118.495 176.924C116.382 177.393 113.845 178.051 113.094 174.106L112.625 174.341C112.625 177.159 111.451 177.863 107.459 177.628C104.66 177.463 103.881 175.122 104.047 173.861C103.303 176.083 101.443 173.846 100.719 172.818C101.782 174.779 100.771 179.507 95.4825 179.507C90.0817 179.507 91.4906 172.697 92.6647 171.523C93.8388 170.349 94.3084 166.122 93.8388 161.426C93.3692 156.729 88.2031 157.434 82.8023 156.729C77.4015 156.025 73.4096 152.502 72.4703 152.737C71.531 152.972 68.948 152.737 66.365 157.434C63.782 162.13 67.3043 167.766 66.365 170.818C65.4257 173.871 60.0251 171.523 58.1463 171.523C56.2675 171.523 56.0337 171.523 48.0491 174.341C40.0646 177.158 40.5349 175.75 37.4823 175.515C35.4208 175.356 35.3338 174.071 35.6392 173.156C35.1991 173.846 34.0378 174.644 31.6118 174.341C28.9998 174.014 29.2728 172.718 29.903 171.871C28.2328 173.368 24.2154 171.332 25.9762 168.47C26.4201 167.749 27.6206 165.268 33.2556 164.243C35.8386 163.774 39.5954 163.774 41.4742 163.774C49.7739 163.774 53.9201 164.243 56.0337 166.122C52.7462 162.208 46.8288 152.268 49.4587 143.814C52.7462 133.247 60.0251 138.179 59.0859 133.717C58.1466 129.255 58.851 116.575 60.0251 109.531C61.1992 102.486 67.3045 90.98 68.7134 87.2229Z" fill="#8FBB45"/>
<path d="M92.6647 171.523C93.8388 170.349 94.3084 166.122 93.8388 161.426C93.3692 156.729 88.2031 157.434 82.8023 156.729C77.4015 156.025 73.4096 152.502 72.4703 152.737C71.531 152.972 68.948 152.737 66.365 157.434C63.782 162.13 67.3043 167.766 66.365 170.818C65.4257 173.871 60.0251 171.523 58.1463 171.523C56.2675 171.523 56.0337 171.523 48.0491 174.341C40.0646 177.158 40.5349 175.75 37.4823 175.515C35.0402 175.327 35.3689 173.558 35.8386 172.697C35.682 173.401 34.6175 174.716 31.6118 174.341C28.6062 173.965 29.4206 172.306 30.2036 171.523C28.7947 173.636 24.0979 171.523 25.9762 168.47C26.4201 167.749 27.6206 165.268 33.2556 164.243C35.8386 163.774 39.5954 163.774 41.4742 163.774C49.7739 163.774 53.9201 164.243 56.0337 166.122C52.7462 162.208 46.8288 152.268 49.4587 143.814C52.7462 133.247 60.0251 138.179 59.0859 133.717C58.1466 129.255 58.851 116.575 60.0251 109.531C61.1992 102.486 67.3045 90.98 68.7134 87.2229C69.8406 84.2172 69.8092 81.4307 69.6527 80.4131C77.6365 76.8909 93.4161 70.0341 92.6647 70.7856C91.7254 71.7248 88.6728 79.239 89.3772 83.9354C90.0817 88.6318 94.5432 102.956 94.3084 112.348C94.0736 121.741 98.5352 133.717 99.9441 135.361C101.353 137.004 109.806 140.057 109.806 148.745C109.806 155.696 103.701 163.226 100.649 166.122C103.075 165.261 104.265 165.699 111.216 167.766C113.714 168.508 117.802 169.023 118.965 170.114M92.6647 171.523C91.4906 172.697 90.0817 179.507 95.4825 179.507C100.883 179.507 101.823 174.575 100.649 172.697M92.6647 171.523C96.6093 168.517 99.6309 171.053 100.649 172.697M100.649 172.697C99.4744 170.818 103.263 177.628 104.171 173.401M104.171 173.401C103.702 174.419 104.265 177.44 107.459 177.628C111.451 177.863 112.625 177.159 112.625 174.341M104.171 173.401C104.423 172.227 104.406 169.409 108.398 169.409C112.389 169.409 112.625 171.523 112.625 174.341M113.094 174.106C113.845 178.051 116.382 177.393 118.495 176.924C120.139 176.558 120.587 175.806 120.843 175.28M113.094 174.106C112.155 169.175 114.738 168.95 118.965 170.114M113.094 174.106L112.625 174.341M118.965 170.114C119.904 169.409 123.943 168.376 125.07 170.818C126.479 173.871 124.223 175.515 120.843 175.28M118.965 170.114C121.062 172.082 121.53 173.871 120.843 175.28" stroke="#719533" stroke-width="3"/>
<path d="M71.7623 92.3887C73.0773 88.068 72.0148 82.2915 70.919 79.9433L84.4425 76.8906C85.5205 77.1254 85.8045 82.4323 88.4344 92.3887C91.7219 104.834 93.1308 133.952 89.8433 143.814C87.2134 151.704 87.1818 155.711 89.3735 157.199C81.8592 156.729 79.981 156.494 72.4665 152.267C68.535 150.056 62.4655 137.709 64.3441 121.037C66.2226 104.364 70.1186 97.7895 71.7623 92.3887Z" fill="#FEF4A6"/>
<path d="M90.7793 74.7773C90.7793 76.1281 88.6801 77.4789 89.6131 85.3583C79.0993 83.4911 70.9817 88.328 68.4719 91.6843C65.4137 94.0194 63.7268 101.209 62.6013 101.547C61.8314 101.622 64.7936 96.1263 64.2451 93.7977C63.6965 91.469 59.1899 92.6415 59.0792 92.1192C58.9684 91.5969 67.7675 88.6316 68.4719 87.9272C68.9416 85.8138 70.5848 82.996 69.4364 80.6307L90.7793 74.7773Z" fill="#69573A" fill-opacity="0.5"/>
<path d="M32.7848 40.7283C27.5249 49.1818 32.6283 58.4962 35.8374 62.0968C34.4284 64.6798 33.2546 69.611 37.2465 75.7163C41.2384 81.8216 68.2426 82.7609 73.6434 82.0564C79.0442 81.3519 86.5584 77.5948 92.4289 73.8377C98.2993 70.0806 105.814 65.1495 107.457 57.1656C108.772 50.7785 104.874 47.4598 102.761 46.5988C103.857 44.1723 104.546 37.4878 98.5342 30.1614C92.5228 22.8351 85.2278 24.9171 82.3317 26.874C66.364 23.8683 52.9793 30.4425 48.283 34.1053C43.8519 33.2384 37.0775 33.8292 32.7848 40.7283Z" fill="#8FBB45"/>
<path d="M50.866 34.8578C50.1607 34.57 49.2813 34.3006 48.283 34.1053M48.283 34.1053C43.8519 33.2384 37.0775 33.8292 32.7848 40.7283C27.5249 49.1818 32.6283 58.4962 35.8374 62.0968C34.4284 64.6798 33.2546 69.611 37.2465 75.7163C41.2384 81.8216 68.2426 82.7609 73.6434 82.0564C79.0442 81.3519 86.5584 77.5948 92.4289 73.8377C98.2993 70.0806 105.814 65.1495 107.457 57.1656C108.772 50.7785 104.874 47.4598 102.761 46.5988C103.857 44.1723 104.546 37.4878 98.5342 30.1614C92.5228 22.8351 85.2278 24.9171 82.3317 26.874M48.283 34.1053C52.9793 30.4425 66.364 23.8683 82.3317 26.874M82.3317 26.874C80.9228 27.8915 77.7762 30.6311 76.4612 33.4489" stroke="#719533" stroke-width="3"/>
<path d="M55.7942 45.4232C57.1092 48.0532 55.2463 51.6851 54.1505 53.1723C52.3343 56.9294 34.8954 60.9213 32.782 56.9294C30.6686 52.9374 31.1748 49.569 32.3123 47.067C33.4867 44.484 36.0695 40.9617 42.8792 40.2572C49.6889 39.5528 54.1505 42.1358 55.7942 45.4232Z" fill="#7A9E3D"/>
<path d="M79.5076 36.5002C76.4549 39.7877 75.2808 41.901 78.5683 46.5974C79.8833 48.4759 84.4219 54.7581 89.37 55.0509C94.686 55.3654 100.956 50.0738 102.05 48.0063C104.164 44.0144 102.701 40.058 101.563 37.5561C100.389 34.9731 97.808 30.0622 90.9962 30.7463C85.143 31.3342 83.2645 32.4542 79.5076 36.5002Z" fill="#7A9E3D"/>
<path d="M54.9224 56.8659C54.9224 58.2522 54.6803 59.2803 54.2763 60.058C53.8802 60.8202 53.2836 61.4297 52.4199 61.9192C50.6085 62.9457 47.6871 63.4137 43.3494 63.4137C37.9529 63.4137 33.5781 59.0389 33.5781 53.6424C33.5781 48.2459 37.9529 43.8711 43.3494 43.8711C45.8413 43.8711 48.733 45.5768 51.0914 48.272C53.4361 50.9512 54.9224 54.2376 54.9224 56.8659Z" fill="white" stroke="#719533" stroke-width="3"/>
<path d="M101.964 42.8416C101.964 48.112 97.4695 52.2236 91.928 53.2188C91.1873 53.3519 90.53 53.4885 89.9213 53.6151C89.0277 53.8009 88.2389 53.9649 87.4447 54.0637C86.173 54.2218 85.3797 54.1253 84.8187 53.8002C84.2941 53.4962 83.6756 52.814 83.1944 51.0783C82.7104 49.3323 82.4219 46.7144 82.4219 42.8416C82.4219 37.4451 86.7966 33.0703 92.1932 33.0703C97.5897 33.0703 101.964 37.4451 101.964 42.8416Z" fill="white" stroke="#719533" stroke-width="3"/>
<path d="M39.1172 71.6021C41.7002 69.2539 53.0012 83.5149 73.6355 78.4118C95.4737 73.0109 100.17 56.3389 104.162 57.9826" stroke="#719533" stroke-width="3"/>
<mask id="path-16-inside-1_2196_13321" fill="white">
<path fill-rule="evenodd" clip-rule="evenodd" d="M46.6614 63.4821C50.9033 62.9152 53.7851 58.2874 53.0979 53.1457C52.4107 48.0039 48.4149 44.2953 44.1729 44.8622C42.6352 45.0677 41.2763 45.8068 40.2013 46.9106C40.9611 47.4701 41.527 48.4163 41.6776 49.5431C41.9393 51.5012 40.8475 53.2628 39.2391 53.4778C38.6813 53.5523 38.1346 53.4311 37.6475 53.1592C37.6161 53.8239 37.6439 54.5066 37.7364 55.1986C38.4236 60.3404 42.4194 64.049 46.6614 63.4821Z"/>
</mask>
<path fill-rule="evenodd" clip-rule="evenodd" d="M46.6614 63.4821C50.9033 62.9152 53.7851 58.2874 53.0979 53.1457C52.4107 48.0039 48.4149 44.2953 44.1729 44.8622C42.6352 45.0677 41.2763 45.8068 40.2013 46.9106C40.9611 47.4701 41.527 48.4163 41.6776 49.5431C41.9393 51.5012 40.8475 53.2628 39.2391 53.4778C38.6813 53.5523 38.1346 53.4311 37.6475 53.1592C37.6161 53.8239 37.6439 54.5066 37.7364 55.1986C38.4236 60.3404 42.4194 64.049 46.6614 63.4821Z" fill="#050505"/>
<path d="M40.2013 46.9106L38.0521 44.8175L35.6493 47.2846L38.4225 49.3264L40.2013 46.9106ZM37.6475 53.1592L39.1096 50.5396L34.8796 48.1786L34.6509 53.0176L37.6475 53.1592ZM50.1243 53.5431C50.667 57.6034 48.3541 60.2292 46.264 60.5086L47.0588 66.4557C53.4526 65.6012 56.9031 58.9715 56.0714 52.7482L50.1243 53.5431ZM44.5703 47.8357C46.6604 47.5564 49.5817 49.4827 50.1243 53.5431L56.0714 52.7482C55.2397 46.525 50.1693 41.0341 43.7755 41.8886L44.5703 47.8357ZM42.3504 49.0037C43.0052 48.3314 43.7646 47.9434 44.5703 47.8357L43.7755 41.8886C41.5058 42.1919 39.5473 43.2822 38.0521 44.8175L42.3504 49.0037ZM38.4225 49.3264C38.472 49.3628 38.652 49.5509 38.7041 49.9405L44.6512 49.1457C44.4021 47.2818 43.4502 45.5773 41.98 44.4948L38.4225 49.3264ZM38.7041 49.9405C38.7483 50.2715 38.6642 50.4957 38.6097 50.5838C38.5848 50.6239 38.5803 50.6142 38.6209 50.5859C38.6666 50.5541 38.7445 50.5172 38.8417 50.5042L39.6365 56.4513C43.4075 55.9474 45.0557 52.1722 44.6512 49.1457L38.7041 49.9405ZM38.8417 50.5042C38.9058 50.4957 38.9683 50.499 39.0212 50.5099C39.0723 50.5204 39.1017 50.5352 39.1096 50.5396L36.1854 55.7788C37.1824 56.3352 38.3766 56.6197 39.6365 56.4513L38.8417 50.5042ZM40.71 54.8012C40.6414 54.2877 40.6213 53.7854 40.6442 53.3008L34.6509 53.0176C34.6109 53.8625 34.6465 54.7256 34.7629 55.596L40.71 54.8012ZM46.264 60.5086C44.1739 60.7879 41.2526 58.8615 40.71 54.8012L34.7629 55.596C35.5946 61.8193 40.665 67.3102 47.0588 66.4557L46.264 60.5086Z" fill="#3A4F18" mask="url(#path-16-inside-1_2196_13321)"/>
<mask id="path-18-inside-2_2196_13321" fill="white">
<path fill-rule="evenodd" clip-rule="evenodd" d="M90.7412 53.4222C95.0209 53.4222 98.4902 49.2169 98.4902 44.0295C98.4902 38.842 95.0209 34.6367 90.7412 34.6367C89.739 34.6367 88.7813 34.8673 87.9022 35.2871C88.7801 35.9701 89.361 37.1563 89.361 38.5054C89.361 40.622 87.9311 42.3379 86.1673 42.3379C85.061 42.3379 84.0861 41.6629 83.5129 40.6374C83.1766 41.6895 82.9922 42.8334 82.9922 44.0295C82.9922 49.2169 86.4615 53.4222 90.7412 53.4222Z"/>
</mask>
<path fill-rule="evenodd" clip-rule="evenodd" d="M90.7412 53.4222C95.0209 53.4222 98.4902 49.2169 98.4902 44.0295C98.4902 38.842 95.0209 34.6367 90.7412 34.6367C89.739 34.6367 88.7813 34.8673 87.9022 35.2871C88.7801 35.9701 89.361 37.1563 89.361 38.5054C89.361 40.622 87.9311 42.3379 86.1673 42.3379C85.061 42.3379 84.0861 41.6629 83.5129 40.6374C83.1766 41.6895 82.9922 42.8334 82.9922 44.0295C82.9922 49.2169 86.4615 53.4222 90.7412 53.4222Z" fill="#050505"/>
<path d="M87.9022 35.2871L86.6095 32.5799L82.2264 34.6729L86.0602 37.6551L87.9022 35.2871ZM83.5129 40.6374L86.1317 39.1738L82.7596 33.1404L80.6553 39.724L83.5129 40.6374ZM95.4902 44.0295C95.4902 48.1259 92.8499 50.4222 90.7412 50.4222V56.4222C97.1919 56.4222 101.49 50.308 101.49 44.0295H95.4902ZM90.7412 37.6367C92.8499 37.6367 95.4902 39.9331 95.4902 44.0295H101.49C101.49 37.7509 97.1919 31.6367 90.7412 31.6367V37.6367ZM89.1949 37.9943C89.69 37.7579 90.2077 37.6367 90.7412 37.6367V31.6367C89.2704 31.6367 87.8726 31.9768 86.6095 32.5799L89.1949 37.9943ZM86.0602 37.6551C86.1347 37.713 86.361 37.9858 86.361 38.5054H92.361C92.361 36.3269 91.4255 34.2271 89.7441 32.9192L86.0602 37.6551ZM86.361 38.5054C86.361 38.8984 86.2267 39.1678 86.1209 39.2948C86.0204 39.4154 86.0238 39.3379 86.1673 39.3379V45.3379C90.0769 45.3379 92.361 41.7435 92.361 38.5054H86.361ZM86.1673 39.3379C86.1984 39.3379 86.2292 39.343 86.2544 39.3508C86.2785 39.3583 86.2878 39.3651 86.2831 39.3621C86.2711 39.3542 86.2045 39.3042 86.1317 39.1738L80.8942 42.101C81.8821 43.8687 83.7566 45.3379 86.1673 45.3379V39.3379ZM85.9922 44.0295C85.9922 43.1415 86.1291 42.3059 86.3705 41.5507L80.6553 39.724C80.2241 41.0732 79.9922 42.5252 79.9922 44.0295H85.9922ZM90.7412 50.4222C88.6325 50.4222 85.9922 48.1259 85.9922 44.0295H79.9922C79.9922 50.308 84.2906 56.4222 90.7412 56.4222V50.4222Z" fill="#3A4F18" mask="url(#path-18-inside-2_2196_13321)"/>
<mask id="path-20-inside-3_2196_13321" fill="white">
<ellipse cx="65.6594" cy="67.966" rx="1.64373" ry="1.64373"/>
</mask>
<ellipse cx="65.6594" cy="67.966" rx="1.64373" ry="1.64373" fill="#567127"/>
<path d="M64.3031 67.966C64.3031 67.2169 64.9103 66.6097 65.6594 66.6097V72.6097C68.224 72.6097 70.3031 70.5307 70.3031 67.966H64.3031ZM65.6594 66.6097C66.4084 66.6097 67.0156 67.2169 67.0156 67.966H61.0156C61.0156 70.5307 63.0947 72.6097 65.6594 72.6097V66.6097ZM67.0156 67.966C67.0156 68.715 66.4084 69.3223 65.6594 69.3223V63.3223C63.0947 63.3223 61.0156 65.4013 61.0156 67.966H67.0156ZM65.6594 69.3223C64.9103 69.3223 64.3031 68.715 64.3031 67.966H70.3031C70.3031 65.4013 68.224 63.3223 65.6594 63.3223V69.3223Z" fill="#A1D250" mask="url(#path-20-inside-3_2196_13321)"/>
<mask id="path-22-inside-4_2196_13321" fill="white">
<ellipse cx="74.5812" cy="66.089" rx="1.64373" ry="1.64373"/>
</mask>
<ellipse cx="74.5812" cy="66.089" rx="1.64373" ry="1.64373" fill="#567127"/>
<path d="M73.225 66.089C73.225 65.34 73.8322 64.7328 74.5812 64.7328V70.7328C77.1459 70.7328 79.225 68.6537 79.225 66.089H73.225ZM74.5812 64.7328C75.3303 64.7328 75.9375 65.34 75.9375 66.089H69.9375C69.9375 68.6537 72.0166 70.7328 74.5812 70.7328V64.7328ZM75.9375 66.089C75.9375 66.8381 75.3303 67.4453 74.5812 67.4453V61.4453C72.0166 61.4453 69.9375 63.5244 69.9375 66.089H75.9375ZM74.5812 67.4453C73.8322 67.4453 73.225 66.8381 73.225 66.089H79.225C79.225 63.5244 77.1459 61.4453 74.5812 61.4453V67.4453Z" fill="#A1D250" mask="url(#path-22-inside-4_2196_13321)"/>
<path d="M68.2378 154.38C70.8678 152.877 72.3863 152.345 72.6994 152.501C71.0557 151.092 69.563 149.518 68.7075 148.04C66.3583 143.98 65.8556 140.038 59.3147 134.186C59.3147 135.125 59.4489 134.89 59.3147 135.125C59.0018 135.672 58.6103 135.829 58.1406 136.064C59.1582 137.003 61.569 139.399 63.0718 141.465C64.9504 144.048 67.6925 146.542 66.1245 153.206C65.1852 157.198 61.1933 160.485 61.1933 160.485C61.1933 160.485 62.0677 163.184 62.6022 166.121C63.1152 168.939 61.88 171.76 61.8977 171.991C67.0637 172.931 66.5941 171.052 65.6548 165.416C64.2459 159.546 67.0327 155.069 68.2378 154.38Z" fill="#69573A" fill-opacity="0.43"/>
<path d="M91.4848 135.36C91.8605 133.481 96.0246 132.385 98.0597 132.072C96.8074 134.734 94.1617 140.995 93.5982 144.752C93.0346 148.51 95.7115 154.223 98.0597 155.554C98.0597 157.433 96.1812 158.684 96.1812 161.894C96.1812 163.538 96.8856 164.947 95.7115 167.06C94.5374 169.174 92.6589 172.461 93.5982 169.643C94.5374 166.825 94.5374 162.129 93.5982 159.546C92.8467 157.48 89.0583 157.12 87.9625 157.198C86.0838 157.198 73.4036 156.493 68.4728 147.805C65.4197 141.465 64.1911 140.897 68.4724 143.344C71.7602 145.222 85.6142 145.457 87.9625 144.752C91.2373 143.77 91.0152 137.708 91.4848 135.36Z" fill="#69573A" fill-opacity="0.4"/>
<path d="M54.4339 23.7855C54.9975 31.4875 61.4002 34.3523 64.5311 34.822C67.1144 32.9434 77.4459 28.2471 68.5228 19.7936C61.3843 13.0308 59.4433 7.11337 59.3651 5C57.4866 8.05264 53.8704 16.0834 54.4339 23.7855Z" fill="#5D7639"/>
<path d="M64.5311 34.822C61.4002 34.3523 54.9975 31.4875 54.4339 23.7855C53.8704 16.0834 57.4866 8.05264 59.3651 5C59.4433 7.11337 61.3843 13.0308 68.5228 19.7936C77.4459 28.2471 67.1144 32.9434 64.5311 34.822ZM64.5311 34.822C65.1572 33.1 65.7048 28.6697 62.8872 24.7248C60.0695 20.7798 59.3651 16.9758 59.3651 15.5668" stroke="#719533" stroke-width="3"/>
<ellipse cx="44.0282" cy="52.778" rx="4.21573" ry="5.10998" fill="white" fill-opacity="0.1"/>
<ellipse cx="89.7626" cy="42.9424" rx="4.21573" ry="5.49323" fill="white" fill-opacity="0.1"/>
</svg>
