<svg width="44" height="44" viewBox="0 0 44 44" fill="none" xmlns="http://www.w3.org/2000/svg">
<circle cx="21.6809" cy="22.6203" r="9.0246" fill="#5E7153"/>
<path d="M21.9131 3.81348L25.1564 3.84627L25.122 6.93888L20.3968 6.94046L17.1827 6.94321C17.1382 6.52622 17.1634 6.08778 17.1632 5.66797L17.1635 3.871L21.9131 3.81348ZM18.1748 4.81353L18.1559 5.94592L24.1418 5.94804L24.1563 4.84697C24.0099 4.7964 23.7585 4.81768 23.5994 4.81524L18.1748 4.81353Z" fill="#1E1F1C"/>
<path d="M20.8607 8.8413C29.6087 8.66083 36.3041 15.6624 35.505 24.3891C35.4593 24.8877 35.4061 25.4116 35.2858 25.8985L35.1323 26.5549C33.5473 32.6797 28.1329 37.0219 21.819 37.2321C19.7307 37.2348 17.929 37.0039 15.9605 36.1848C7.89135 32.8273 4.35532 22.6362 9.45617 15.2234C12.1625 11.2904 16.1473 9.06928 20.8607 8.8413ZM20.9959 9.85103C15.1403 10.0058 9.74313 14.1505 8.42395 19.9244C6.89172 26.6308 10.6218 33.3017 17.0739 35.5086C18.7813 36.0926 19.8943 36.2028 21.6477 36.2059C24.1337 36.1613 26.62 35.4177 28.6924 34.0315C34.238 30.3219 36.2333 22.8001 33.1542 16.8812C30.8772 12.5043 26.0557 9.707 21.1195 9.84519L20.9959 9.85103Z" fill="#1E1F1C"/>
<path d="M20.7417 11.3339C27.7129 11.0133 33.6388 16.8641 33.0208 23.9402C32.5058 29.8368 27.8959 34.3027 21.9174 34.6459C14.1766 35.017 8.08163 27.725 9.92557 20.2122C11.1301 15.3047 15.7445 11.664 20.7417 11.3339ZM21.1278 12.3C18.4734 12.3804 15.6018 13.5862 13.7695 15.5359C12.6265 16.7521 11.6449 18.1016 11.1171 19.703C8.85032 26.5823 14.3038 33.7581 21.5357 33.6871C24.6251 33.5734 27.1647 32.4165 29.2843 30.1325C33.138 25.9797 32.9363 19.2152 28.7696 15.3592C26.7191 13.4617 23.9535 12.2215 21.1278 12.3Z" fill="#1E1F1C"/>
<path d="M20.8019 13.5679C25.6149 13.4414 30.0158 16.7999 30.658 21.6771C31.3534 26.9581 27.2851 32.1006 21.8918 32.333C21.458 32.3352 21.025 32.3349 20.593 32.2904C15.1607 31.7304 10.9247 26.4848 12.1388 21.0004C13.0525 16.8727 16.6002 13.8309 20.8019 13.5679ZM21.8193 14.5622L21.824 16.2073L20.8185 16.2149L20.8161 14.5873C19.0315 14.5774 16.8321 15.6217 15.6001 16.835L15.5788 16.886C15.9809 17.1003 16.311 17.645 16.7139 17.9245L15.9865 18.6221C15.6757 18.245 15.2749 17.9291 14.9005 17.6189C13.7796 19.0567 13.1348 20.2767 12.9666 22.1689L14.645 22.2004C14.6055 22.526 14.6097 22.8732 14.6257 23.2007L12.9552 23.1875C12.9721 24.6024 13.6162 26.8582 14.6357 27.9226L15.6318 26.9887C15.7026 26.926 15.8055 26.8069 15.892 26.7734C16.1223 26.9436 16.3285 27.2019 16.5418 27.4004L15.5801 28.393C15.4962 28.4856 15.3643 28.5965 15.3156 28.7096C16.6383 30.0764 18.6627 31.2175 20.5985 31.3587L20.8121 31.3755L20.8166 29.7125L21.8066 29.7126L21.8096 31.3757C23.8149 31.2867 26.0623 30.2603 27.4244 28.7596L27.5139 28.6561L26.7249 27.8451C26.5675 27.6898 26.3803 27.5479 26.2505 27.3686C26.4199 27.1495 26.6544 26.9003 26.8839 26.7456C27.3311 27.0515 27.7872 27.4861 28.1636 27.8733C29.0513 26.4103 29.672 24.9308 29.7269 23.1935L28.0375 23.1327L28.0366 22.1557L29.715 22.1562C29.5212 20.6879 29.2676 19.6381 28.4067 18.3526L27.9275 17.7072C27.6136 18.062 27.1945 18.275 26.9023 18.6608C26.6858 18.411 26.4285 18.2173 26.1824 17.9991L27.1839 16.9291C25.9302 15.6616 23.6575 14.5806 21.8193 14.5622Z" fill="#1E1F1C"/>
<path d="M21.4427 17.9922C21.6081 18.5044 21.8407 18.9825 22.024 19.4864C22.3435 20.3647 22.2923 20.735 22.9123 21.4411C24.141 22.8406 23.2192 24.942 21.2246 24.9441C19.4781 24.9091 18.7656 22.9555 19.7056 21.5271C19.9205 21.2005 19.9634 21.2246 20.0708 20.8373C20.2358 20.242 20.3115 20.2016 20.6564 19.7293C21.0592 19.1776 21.3142 18.6579 21.4427 17.9922ZM21.1591 21.7505C20.2602 21.8432 19.9763 22.9438 20.4329 23.5321L20.4668 23.5761C20.5887 23.7351 20.7642 23.8425 20.9497 23.9112L20.98 23.9228C21.1607 23.989 21.3785 23.986 21.5679 23.9664C22.8887 23.7594 22.7644 21.6146 21.1591 21.7505Z" fill="#1E1F1C"/>
<rect x="18.0469" y="4.68848" width="6.32894" height="1.40643" fill="#5E7153"/>
</svg>
