<svg width="131" height="28" viewBox="0 0 131 28" fill="none" xmlns="http://www.w3.org/2000/svg">
<path d="M8.38886 27.4437V27.4821H0V0.274414H8.38886V27.4437Z" fill="white"/>
<path d="M130.92 27.4374L130.961 27.4757H120.152L110.951 15.8119V27.4757H102.578V0.280273H110.951V11.7023L120.237 0.280273H130.675L119.041 13.419L130.923 27.4752L130.92 27.4374Z" fill="white"/>
<path d="M67.5802 0.274414H41.6484V7.90012H50.328V27.4821H58.9401V27.4455V7.90012H67.5802V0.274414Z" fill="white"/>
<path d="M33.3898 8.83849L33.2735 8.99429C30.2354 7.47036 27.5389 6.70838 25.1841 6.70838C23.4363 6.70838 22.5627 7.22793 22.563 8.26701C22.563 8.96077 22.9429 9.46307 23.7026 9.7739C24.3864 10.0161 25.431 10.2758 26.8365 10.5529C30.5209 11.2118 33.2181 12.2162 34.9283 13.5661C36.6001 14.8839 37.4358 16.789 37.4354 19.2815C37.4354 21.8445 36.2958 23.9052 34.0166 25.4636C31.699 26.9903 28.6219 27.7525 24.7853 27.7501C19.6571 27.7501 15.4213 26.7109 12.0781 24.6323L16.2947 18.242C19.2576 20.1128 22.1066 21.048 24.8417 21.0476C26.741 21.0476 27.6907 20.4762 27.6907 19.3332C27.6907 18.3294 26.627 17.6366 24.4998 17.2548C20.6236 16.6316 17.7358 15.6627 15.8365 14.348C13.9371 13.0334 12.9875 11.1285 12.9875 8.63327C12.9875 6.209 14.0511 4.16532 16.1784 2.50224C18.2676 0.83994 21.3068 0.00878906 25.2958 0.00878906C29.5503 0.00878906 33.3877 0.770757 36.8081 2.2947L33.3893 8.89256L33.3898 8.83849Z" fill="white"/>
<path d="M98.8847 13.9753C98.8847 6.2566 92.5657 0 84.7705 0C76.9752 0 70.6563 6.25486 70.6563 13.9753C70.6533 16.3779 71.2778 18.7395 72.468 20.8267C72.4796 20.808 72.4907 20.7894 72.5023 20.7685C74.953 16.8228 79.3794 14.141 84.4728 13.9718H98.8847C98.8847 14.0108 98.8847 14.0497 98.8847 14.0881C98.8835 14.0509 98.8847 14.0119 98.8847 13.9753Z" fill="white"/>
<path d="M98.8812 13.9756H84.4711C79.3777 14.1419 74.9513 16.8242 72.5006 20.7723C72.489 20.7903 72.4779 20.8089 72.4663 20.8304L72.4151 20.9135C72.3376 21.0438 72.2601 21.1755 72.1826 21.3089C71.0546 23.3147 70.4617 25.577 70.4609 27.8782H85.3106C92.8064 27.6253 98.812 21.5618 98.8789 14.093C98.8789 14.0547 98.8789 14.0157 98.8789 13.9767L98.8812 13.9756Z" fill="#5E7153"/>
</svg>
