<svg width="131" height="28" viewBox="0 0 131 28" fill="none" xmlns="http://www.w3.org/2000/svg">
<path d="M8.38886 27.4427V27.4811H0V0.273438H8.38886V27.4427Z" fill="white"/>
<path d="M130.92 27.4364L130.961 27.4748H120.152L110.951 15.8109V27.4748H102.578V0.279297H110.951V11.7013L120.237 0.279297H130.675L119.041 13.418L130.923 27.4742L130.92 27.4364Z" fill="white"/>
<path d="M67.5802 0.273438H41.6484V7.89914H50.328V27.4811H58.9401V27.4445V7.89914H67.5802V0.273438Z" fill="white"/>
<path d="M33.3898 8.83751L33.2735 8.99332C30.2354 7.46938 27.5389 6.70741 25.1841 6.70741C23.4363 6.70741 22.5627 7.22695 22.563 8.26604C22.563 8.95979 22.9429 9.46209 23.7026 9.77292C24.3864 10.0152 25.431 10.2748 26.8365 10.5519C30.5209 11.2108 33.2181 12.2152 34.9283 13.5651C36.6001 14.8829 37.4358 16.788 37.4354 19.2805C37.4354 21.8435 36.2958 23.9042 34.0166 25.4627C31.699 26.9893 28.6219 27.7515 24.7853 27.7492C19.6571 27.7492 15.4213 26.7099 12.0781 24.6313L16.2947 18.241C19.2576 20.1118 22.1066 21.0471 24.8417 21.0467C26.741 21.0467 27.6907 20.4752 27.6907 19.3322C27.6907 18.3284 26.627 17.6356 24.4998 17.2539C20.6236 16.6306 17.7358 15.6617 15.8365 14.3471C13.9371 13.0324 12.9875 11.1275 12.9875 8.63229C12.9875 6.20802 14.0511 4.16434 16.1784 2.50127C18.2676 0.838963 21.3068 0.0078125 25.2958 0.0078125C29.5503 0.0078125 33.3877 0.769781 36.8081 2.29372L33.3893 8.89158L33.3898 8.83751Z" fill="white"/>
<path d="M98.8847 13.9753C98.8847 6.2566 92.5657 0 84.7705 0C76.9752 0 70.6563 6.25486 70.6563 13.9753C70.6533 16.3779 71.2778 18.7395 72.468 20.8267C72.4796 20.808 72.4907 20.7894 72.5023 20.7685C74.953 16.8228 79.3794 14.141 84.4728 13.9718H98.8847C98.8847 14.0108 98.8847 14.0497 98.8847 14.0881C98.8835 14.0509 98.8847 14.0119 98.8847 13.9753Z" fill="white"/>
<path d="M98.8812 13.9746H84.4711C79.3777 14.1409 74.9513 16.8233 72.5006 20.7713C72.489 20.7893 72.4779 20.8079 72.4663 20.8294L72.4151 20.9126C72.3376 21.0428 72.2601 21.1746 72.1826 21.3079C71.0546 23.3138 70.4617 25.5761 70.4609 27.8773H85.3106C92.8064 27.6244 98.812 21.5608 98.8789 14.092C98.8789 14.0537 98.8789 14.0147 98.8789 13.9758L98.8812 13.9746Z" fill="#6D9033"/>
</svg>
