<svg width="24" height="24" viewBox="0 0 24 24" fill="none" xmlns="http://www.w3.org/2000/svg">
<path d="M11.9988 1.5C9.56451 1.51658 7.2116 2.37849 5.34259 3.93828C3.47358 5.49807 2.20461 7.65882 1.75278 10.0509C1.30094 12.443 1.69431 14.9177 2.86559 17.0518C4.03688 19.1858 5.91328 20.8466 8.17383 21.75C8.0219 20.7558 8.0219 19.7442 8.17383 18.75L9.41133 13.5C9.21548 13.0245 9.11851 12.5142 9.12633 12C9.12633 10.545 9.97383 9.45 11.0238 9.45C11.214 9.44714 11.4026 9.48543 11.5767 9.56224C11.7507 9.63906 11.9061 9.75258 12.0322 9.89504C12.1582 10.0375 12.252 10.2055 12.3071 10.3876C12.3622 10.5697 12.3773 10.7615 12.3513 10.95C12.3513 11.85 11.7813 13.2 11.4813 14.445C11.4168 14.6772 11.4091 14.9215 11.4589 15.1573C11.5088 15.3931 11.6147 15.6133 11.7678 15.7995C11.9208 15.9857 12.1165 16.1322 12.3382 16.2267C12.5598 16.3212 12.801 16.361 13.0413 16.3425C14.9013 16.3425 16.3413 14.37 16.3413 11.535C16.36 10.9589 16.2584 10.3853 16.0431 9.85062C15.8277 9.31598 15.5032 8.8321 15.0904 8.42986C14.6776 8.02762 14.1854 7.71584 13.6454 7.51442C13.1053 7.31299 12.5292 7.22634 11.9538 7.26C11.3395 7.23361 10.7262 7.33216 10.1511 7.54966C9.57593 7.76717 9.05091 8.09912 8.60778 8.52542C8.16465 8.95172 7.81263 9.46351 7.57303 10.0298C7.33343 10.5961 7.21123 11.2051 7.21383 11.82C7.20549 12.6766 7.46798 13.5139 7.96383 14.2125C7.99988 14.2526 8.02557 14.3009 8.03864 14.3532C8.05171 14.4055 8.05178 14.4602 8.03883 14.5125C7.95633 14.8425 7.77633 15.5625 7.74633 15.705C7.71633 15.8475 7.58882 15.9375 7.39382 15.8475C6.08132 15.2325 5.26383 13.32 5.26383 11.775C5.26383 8.4675 7.67133 5.4225 12.2013 5.4225C15.8388 5.4225 18.6738 8.0175 18.6738 11.49C18.6738 15.105 16.4238 18.015 13.2213 18.015C12.7518 18.0313 12.2857 17.9301 11.8653 17.7206C11.4448 17.511 11.0834 17.1997 10.8138 16.815L10.1613 19.3125C9.84854 20.2831 9.40979 21.2085 8.85633 22.065C9.87616 22.3664 10.9355 22.513 11.9988 22.5C14.7836 22.5 17.4543 21.3938 19.4234 19.4246C21.3926 17.4555 22.4988 14.7848 22.4988 12C22.4988 9.21523 21.3926 6.54451 19.4234 4.57538C17.4543 2.60625 14.7836 1.5 11.9988 1.5" fill="#0C0C0C"/>
</svg>
