<svg width="44" height="44" viewBox="0 0 44 44" fill="none" xmlns="http://www.w3.org/2000/svg">
<g clip-path="url(#clip0_1446_3372)">
<path d="M0 0H44V44H0V0Z" fill="#FCFCE4"/>
<path d="M26.2469 3.81173L26.2605 3.8099C28.7574 3.60011 31.0226 5.16084 32.0809 7.36599C32.2143 7.64409 32.3292 7.93121 32.4109 8.22889L32.5411 8.75341C32.5487 8.78435 32.5638 8.89044 32.5799 8.91222C32.591 8.92726 34.068 9.03361 34.2476 9.08419C34.3124 9.1024 34.3646 9.13583 34.4143 9.18056C34.5202 9.2757 34.6022 9.41431 34.6045 9.56088C34.6069 9.71681 34.5347 9.89337 34.4185 9.99684C34.3542 10.0542 34.2718 10.1081 34.1854 10.1224C33.9494 10.1614 33.6299 10.0866 33.3872 10.0602L32.1583 9.93965C32.2249 10.9135 32.1685 11.8586 31.7644 12.7613C31.6269 13.0684 31.4513 13.3524 31.2827 13.6427C32.1059 13.9259 32.9102 14.4736 33.5242 15.0876C33.7984 15.3617 34.0723 15.6562 34.3014 15.9695C35.1413 17.1183 35.6657 18.5633 35.7845 19.9796C35.8203 20.4072 35.8064 20.8401 35.8051 21.269L35.8045 23.123L35.8052 28.0659L37.1257 28.0712C37.3464 28.0723 37.6032 28.0509 37.8192 28.0941L37.8533 28.1016C38.1535 28.164 38.3959 28.2916 38.6179 28.5019C38.908 28.7769 39.093 29.1796 39.0996 29.5802C39.1069 30.0279 38.9447 30.4296 38.6325 30.7501C38.1054 31.2913 37.4215 31.2134 36.7288 31.217L36.7311 40.0235L35.6846 40.0113L35.6887 34.3982L28.2478 34.3968L28.2485 40.0246L27.1784 40.0228L27.1865 31.2141L25.3783 31.2214L21.6623 40.0485L16.9983 40.0403L17.8169 38.1411C17.8951 37.9529 18.0201 37.7198 18.06 37.5232C18.1168 37.2438 18.0785 36.8849 18.0782 36.5986L18.0763 34.6212L18.0847 26.7517L8.43426 26.7554C8.40895 26.8482 8.42283 26.9627 8.42322 27.059L8.42494 27.6425L8.42399 29.6589L8.41866 40.0301L7.37078 40.026L7.37194 31.7416L7.37371 26.7451C6.68144 26.7402 5.9419 26.8283 5.40239 26.3037C5.07174 25.9821 4.9003 25.5694 4.89845 25.1087C4.8969 24.7178 5.05872 24.3326 5.33424 24.0576C5.57877 23.8135 5.87285 23.6643 6.21501 23.6186C6.46462 23.5853 6.72041 23.5935 6.97165 23.5933L8.06125 23.5931L11.6169 23.5958L22.7102 23.593L22.7117 26.7501L19.1293 26.747L19.1449 34.8788L21.5882 28.5102C21.6436 28.3895 21.7197 28.3119 21.8365 28.2467C21.984 28.1642 22.1694 28.1166 22.3289 28.0615L23.1795 27.7586L25.5878 26.8912L27.6272 26.1741L27.6197 24.8304L27.6013 24.8392L27.5705 24.8536C27.4655 24.9044 27.3415 24.9626 27.2222 24.9315L27.1971 24.9244L14.7439 20.4622L14.4941 21.0012C14.5173 21.06 14.5534 21.0698 14.6061 21.1029L14.6103 21.1301L14.1584 21.9692C14.0269 22.2183 13.899 22.5276 13.6865 22.7147C13.3216 23.0359 12.861 23.1669 12.3838 23.1345C11.9894 23.1077 11.5869 22.8873 11.3289 22.5909C10.9967 22.2093 10.8333 21.6833 10.9284 21.1803C11.0081 20.7588 11.3206 20.3328 11.5299 19.9585L12.549 18.031C12.7711 17.6089 13.0486 17.1682 13.2014 16.717C13.2775 16.4921 13.2902 16.2582 13.3073 16.0233L15.9311 14.564L16.1566 16.157L16.2617 16.8619C16.282 16.9907 16.3311 17.1788 16.2991 17.3072C16.2725 17.4142 16.2011 17.5324 16.154 17.6329L15.7578 18.4394L15.3911 19.1482C15.3343 19.2541 15.238 19.3874 15.2113 19.5032L19.275 21.0289C19.2725 20.7745 19.2834 20.5162 19.3554 20.2708C19.5009 19.775 19.8022 19.4152 20.2547 19.1732C20.5802 18.9992 20.9805 18.9273 21.3476 18.9646C21.5716 18.9874 21.7727 19.064 21.985 19.1344L22.686 19.358L26.0396 20.4075L26.5742 19.8849L27.2779 19.1583C27.3183 19.1155 27.4274 19.0272 27.4476 18.978C27.466 18.9333 27.4554 18.8394 27.4554 18.7911L27.4557 18.3077L27.4553 15.9672C26.6763 16.085 25.8557 15.988 25.1074 15.755C23.7507 15.3327 22.5785 14.3951 21.9201 13.1271C21.2488 11.8342 21.1004 10.423 21.539 9.03013L19.9815 8.89233C20.4035 8.09539 20.945 7.35908 21.5127 6.66101C22.3786 5.59624 23.4135 4.64599 24.7185 4.15933C25.2128 3.97499 25.7233 3.8658 26.2469 3.81173Z" fill="#1E1F1C"/>
<path d="M12.2474 20.8203L13.3118 21.3267C13.1932 21.5323 13.0929 21.7587 12.9514 21.9488C12.8919 21.9873 12.8319 22.02 12.7647 22.0429C12.6084 22.0962 12.4121 22.0823 12.2669 22.0035C12.1262 21.9273 12.0186 21.7909 11.9779 21.6362C11.9004 21.3411 12.105 21.0618 12.2474 20.8203Z" fill="#FCFCE4"/>
<path d="M27.1519 9.7832C27.3208 9.79231 27.4632 9.80804 27.6125 9.89462C27.7908 9.99796 27.9401 10.1882 27.9895 10.3891C28.0371 10.5827 28.0118 10.7983 27.9062 10.9695C27.7674 11.1946 27.5648 11.3081 27.3132 11.3682C27.1331 11.3704 27.0052 11.3618 26.8404 11.2782C26.6305 11.1717 26.469 10.9728 26.4069 10.7454C26.3564 10.5606 26.43 10.2925 26.5354 10.1417C26.686 9.9262 26.9005 9.82699 27.1519 9.7832Z" fill="#FCFCE4"/>
<path d="M35.7032 29.1316L36.9378 29.1278C37.169 29.1276 37.4248 29.1065 37.6537 29.1351C37.7345 29.1452 37.8175 29.1872 37.8809 29.2369C37.982 29.3163 38.035 29.4196 38.0477 29.5473C38.0636 29.7086 38.0418 29.8199 37.9372 29.9456C37.8164 30.0906 37.698 30.1237 37.5165 30.1423L35.1172 30.1579C35.373 29.8296 35.5588 29.525 35.7032 29.1316Z" fill="#FCFCE4"/>
<path d="M21.0068 20.0291C21.3183 20.0114 21.5799 20.1314 21.8714 20.2249L22.7444 20.503L22.3703 21.7423C22.3365 21.8498 22.2966 22.083 22.2165 22.1548L22.0763 22.1114L21.373 21.8636C21.1887 21.8049 20.993 21.7548 20.8202 21.6661C20.581 21.5433 20.4036 21.3469 20.3279 21.087C20.2656 20.8725 20.299 20.6403 20.4114 20.4493C20.544 20.2238 20.7603 20.0945 21.0068 20.0291Z" fill="#FCFCE4"/>
<path d="M15.0842 16.2383L15.1185 16.2527L15.1932 16.8169C15.2048 16.8971 15.2365 17.0081 15.2329 17.0871C15.2315 17.1165 15.195 17.1782 15.1813 17.2077L15.0017 17.5767L13.62 20.3027L13.1816 20.0776L12.7812 19.8943L13.9138 17.7128L14.295 16.9467C14.3458 16.8404 14.3897 16.693 14.4576 16.6019C14.4893 16.5594 14.581 16.5221 14.628 16.4961L15.0842 16.2383Z" fill="#5E7153"/>
<path d="M28.5459 31.2061L35.6889 31.2163L35.6858 33.323L35.3801 33.3265L28.2563 33.3267L28.25 31.2148L28.5459 31.2061Z" fill="#FCFCE4"/>
<path d="M12.2484 24.6531L18.4825 24.6599L20.7744 24.654L21.351 24.6524C21.4529 24.6521 21.5705 24.6389 21.6696 24.6622L21.668 25.6738L15.4825 25.6727L9.34149 25.6743L7.40652 25.6725C7.07953 25.6718 6.73466 25.6922 6.40973 25.6598C6.30287 25.6492 6.21474 25.6092 6.13461 25.5374C6.02349 25.4377 5.95568 25.323 5.95319 25.1714C5.95091 25.0305 6.00759 24.9121 6.105 24.8127C6.16709 24.7492 6.25496 24.6789 6.34666 24.6678C6.54337 24.6439 6.7613 24.6602 6.96025 24.6586L8.44804 24.6592L12.2484 24.6531Z" fill="#FCFCE4"/>
<path d="M30.2471 17.9005L30.3471 17.8975C30.6716 17.8971 30.8193 18.093 31.0324 18.3035L31.4146 18.6765C31.5754 18.8393 31.6329 19.0116 31.6224 19.2398C31.6158 19.3811 31.5488 19.5126 31.4619 19.6214C31.3029 19.8207 31.1023 19.9981 30.9218 20.1788L29.9139 21.1876L27.2688 23.8294L24.7358 22.9699L23.2578 22.4613L23.7574 20.8021L25.586 21.3864L26.0213 21.5349C26.089 21.5581 26.1718 21.5946 26.2444 21.5889C26.319 21.5829 26.3955 21.5331 26.4513 21.4867C26.7701 21.2217 27.0582 20.8832 27.3523 20.5892L29.4181 18.5295C29.5974 18.3546 29.7848 18.1332 29.9927 17.9946C30.0729 17.9412 30.1546 17.9215 30.2471 17.9005Z" fill="#FCFCE4"/>
<path d="M26.5115 4.8428C27.2289 4.80783 27.9949 4.96054 28.6418 5.27266C29.7151 5.79048 30.6286 6.72041 31.1315 7.80189C31.2808 8.12278 31.3775 8.47461 31.4947 8.80873L27.1525 8.45927L21.8438 7.96749C21.9814 7.73662 22.1502 7.52074 22.3253 7.31746C22.6783 6.90779 23.0452 6.49177 23.4528 6.13565C24.3255 5.37304 25.3559 4.92676 26.5115 4.8428Z" fill="#5E7153"/>
<path d="M22.6265 9.1123L25.7886 9.37648C25.6709 9.55501 25.5598 9.74162 25.4802 9.94053C25.2965 10.3999 25.3174 10.8714 25.5127 11.3224C25.709 11.7759 26.0835 12.1396 26.544 12.3197C26.9861 12.4925 27.512 12.4731 27.9443 12.2782C28.3835 12.0801 28.7733 11.7048 28.9384 11.2461C29.134 10.7026 29.0997 10.2021 28.8516 9.68778C29.1314 9.68168 29.4185 9.72023 29.6975 9.74442L31.0946 9.86482C31.1238 10.2019 31.1625 10.5387 31.1447 10.8777C31.1299 11.1586 31.0746 11.4272 31.0173 11.7018L30.8727 12.1808C30.4863 13.2196 29.6513 14.0732 28.6489 14.5316C27.5364 15.0402 26.2953 15.0935 25.1487 14.6611C24.091 14.2621 23.1665 13.4004 22.7064 12.3663C22.2391 11.3163 22.2155 10.1843 22.6265 9.1123Z" fill="#FCFCE4"/>
<path d="M30.5434 14.4941C31.5607 14.7926 32.5302 15.4764 33.2062 16.2916C33.4652 16.6039 33.6826 16.9482 33.8846 17.2993C34.2426 17.9216 34.5176 18.6684 34.6422 19.3774C34.6908 19.6545 34.7278 19.9408 34.7396 20.2219L34.7617 24.3691L34.7635 25.4159C34.7638 25.5475 34.788 25.7367 34.7543 25.862L28.6674 25.8779L28.6634 24.8516L28.6717 24.1492C28.6724 24.1076 28.6601 23.9889 28.6748 23.9545C28.6968 23.9027 28.7929 23.8182 28.8339 23.7763L29.2567 23.3465L31.2756 21.3092L31.9298 20.6575C32.0746 20.5128 32.2308 20.3727 32.3448 20.2014C32.5392 19.9095 32.6553 19.5644 32.6599 19.2131C32.6669 18.6765 32.5122 18.2849 32.1342 17.9014C31.8766 17.6401 31.5858 17.2972 31.2785 17.102C30.9993 16.9246 30.6603 16.8456 30.3318 16.8449C29.5151 16.8431 29.0564 17.3871 28.5223 17.9134L28.5078 15.7772C28.5081 15.772 28.5135 15.7168 28.5161 15.7147C28.5666 15.6734 28.7493 15.6375 28.8198 15.6116C29.4881 15.3653 30.0366 14.9903 30.5434 14.4941Z" fill="#FCFCE4"/>
<path d="M28.9215 26.9304L34.7469 26.9219L34.758 28.2356C34.7586 28.7539 34.5866 29.2081 34.214 29.5754C33.9336 29.8519 33.5588 30.0477 33.1711 30.1195C32.8504 30.1789 32.4859 30.154 32.1585 30.1546L30.5095 30.1554L24.6844 30.1542L22.0207 36.5198L20.9506 38.9997L18.6016 38.9919L22.4412 29.1805C22.6197 29.0891 22.8174 29.0248 23.005 28.9541L24.1273 28.5549L26.7975 27.5908L28.4681 26.9952C28.6211 26.9323 28.7577 26.9335 28.9215 26.9304Z" fill="#FCFCE4"/>
</g>
<defs>
<clipPath id="clip0_1446_3372">
<rect width="44" height="44" fill="white"/>
</clipPath>
</defs>
</svg>
