<svg width="45" height="44" viewBox="0 0 45 44" fill="none" xmlns="http://www.w3.org/2000/svg">
<g clip-path="url(#clip0_1446_3419)">
<rect width="44" height="44" transform="translate(0.5)" fill="#5E7153"/>
<path d="M0.5 0H44.5V44H0.5V0Z" fill="#FCFCE4"/>
<path d="M17.5312 3.05936C17.7153 3.05256 17.9522 3.03151 18.1228 3.11188C18.3021 3.19636 18.3471 3.34069 18.4072 3.51417C19.5371 3.61659 20.6178 4.3721 21.1729 5.34835C21.2667 5.51339 21.3545 5.68153 21.4317 5.85503C21.4659 5.93195 21.5066 6.11693 21.5531 6.17193C21.5703 6.1923 21.6064 6.17176 21.633 6.17167L22.4632 6.16965C23.0264 6.16922 23.5352 6.18207 23.962 6.60312C24.3176 6.95405 24.4478 7.36268 24.4512 7.85244C24.4548 8.38289 24.3696 8.79633 23.983 9.18387C23.7731 9.39424 23.4233 9.56225 23.125 9.59744C22.9386 9.6194 22.7338 9.60414 22.5448 9.60431L21.707 9.60311L21.702 10.406C21.6882 11.4168 21.3614 12.3933 20.7211 13.1833C20.5873 13.3484 20.4248 13.4945 20.2725 13.6426C20.3133 13.8564 20.3269 14.0938 20.398 14.2994C20.4105 14.3359 20.4279 14.403 20.4497 14.4312C20.483 14.4742 20.625 14.5234 20.6809 14.5472L21.424 14.8588L23.222 15.6469C23.6548 15.8338 24.1104 16.0034 24.5293 16.2188C24.7723 16.3437 25.0099 16.5008 25.217 16.6791C25.5305 16.9489 25.7812 17.2897 25.9799 17.6509C26.2302 18.1063 26.3987 18.6369 26.591 19.1211L27.7945 22.0971L27.9187 21.9464C27.9754 21.8883 28.0452 21.8326 28.1229 21.8058C28.2501 21.7618 28.3892 21.7696 28.5219 21.7686L29.1554 21.7671C29.154 21.2619 29.1903 16.8401 29.151 16.7563C29.1432 16.7397 29.0924 16.6992 29.0772 16.6841L28.8634 16.4661L27.8418 15.3934C27.6878 15.2304 27.4896 15.0558 27.3654 14.8713C27.321 14.8053 27.298 14.7376 27.2906 14.6587C27.2741 14.4844 27.3269 14.3329 27.4431 14.2033C27.7728 13.8356 28.151 13.4961 28.4987 13.1443L29.0198 12.617C29.116 12.5193 29.2095 12.4078 29.3214 12.3277C29.4136 12.2617 29.526 12.2287 29.6392 12.2279C29.7446 12.2271 29.8735 12.2618 29.9609 12.3206C30.1278 12.4329 30.293 12.6469 30.438 12.7919L31.5587 13.8924L32.584 12.8612C32.7587 12.6832 32.9705 12.39 33.1889 12.2796L33.2163 12.267C33.2989 12.2281 33.3727 12.2218 33.4627 12.2219C33.5918 12.2221 33.6979 12.245 33.8047 12.3213C33.9921 12.4553 34.1657 12.6618 34.3283 12.8263L35.1037 13.5936L37.225 15.6732L37.9978 16.4193C38.1016 16.5243 38.177 16.6506 38.1964 16.7989C38.2197 16.9771 38.2029 17.1737 38.2026 17.3542L38.2022 18.4071L38.2018 22.0619C38.2015 22.3343 38.2412 22.5908 38.0248 22.7961C37.9545 22.8628 37.8728 22.9103 37.7781 22.9327C37.6579 22.9611 37.5105 22.9464 37.3872 22.9468L36.6535 22.9465L36.6541 27.6171L39.1538 27.6098C39.5682 27.6096 40.0225 27.5731 40.4325 27.6165C40.5456 27.6284 40.6364 27.6516 40.7271 27.723C40.8518 27.8211 40.9517 27.9619 40.9658 28.1232C40.979 28.2738 40.969 28.4327 40.9695 28.5843L40.9717 29.5083L40.9721 30.2352C40.972 30.3691 40.9837 30.5162 40.9639 30.6485C40.9467 30.7638 40.8995 30.8636 40.8189 30.9484C40.7416 31.0297 40.6439 31.094 40.5335 31.1177C40.3542 31.1561 40.1251 31.1338 39.9403 31.1345L38.8174 31.141L38.8199 37.7049L38.8201 39.7196C38.82 40.0488 38.8478 40.4069 38.8092 40.733C38.7937 40.8645 38.7417 40.9676 38.6509 41.0652C38.5423 41.1817 38.4053 41.2249 38.2503 41.2333C37.7738 41.259 37.2839 41.2368 36.8062 41.2365C36.4922 41.2364 36.1344 41.2687 35.8252 41.2267C35.73 41.2138 35.6208 41.1511 35.5522 41.0864C35.4479 40.9878 35.3818 40.8682 35.3625 40.7264C35.3235 40.4385 35.3581 40.1197 35.3595 39.8284L35.3603 37.9991L35.3625 31.4049L35.362 31.1427L24.3721 31.1454L24.3723 36.2873L24.375 37.8699C24.3763 38.1596 24.3978 38.4678 24.3652 38.7556C24.3527 38.8661 24.2834 38.9893 24.2088 39.0695C24.0728 39.2155 23.8951 39.2864 23.6987 39.2927L21.1398 39.2908L16.394 39.29L13.8079 39.2868C13.3874 39.2864 12.9255 39.326 12.5114 39.2709C12.3648 39.2514 12.2124 39.1696 12.1087 39.0664C12.0056 38.9637 11.9319 38.8394 11.9125 38.6937C11.8832 38.4725 11.9047 38.2202 11.9044 37.9956L11.9029 36.5334L11.9006 31.1487L9.64347 31.1513L9.64223 33.427L9.64059 37.9961L9.63338 39.7935C9.63136 40.0914 9.64721 40.4029 9.62285 40.6988C9.61679 40.7723 9.595 40.8385 9.56342 40.9049C9.49519 41.0484 9.37754 41.1636 9.2244 41.2113C9.07603 41.2576 8.89754 41.2428 8.74268 41.2429L7.94324 41.2422C7.53633 41.2416 7.0971 41.273 6.69367 41.2306C6.61761 41.2227 6.55509 41.1933 6.48901 41.1565C6.35245 41.0804 6.23412 40.9502 6.19716 40.7948C6.14616 40.5801 6.17925 40.2974 6.17963 40.0754L6.18105 38.6361L6.18079 32.7826L6.18324 31.6248C6.18363 31.4825 6.20963 31.2762 6.17319 31.1417L5.05089 31.1381C4.85895 31.1372 4.5683 31.1723 4.39106 31.1014L4.36279 31.0889C4.30657 31.0646 4.26029 31.0404 4.21447 30.9987C4.08999 30.8854 4.00252 30.7207 3.99719 30.5509L3.99172 28.9081C3.99129 28.6451 3.95051 28.3001 4.00454 28.0464C4.02495 27.9505 4.08192 27.8553 4.14949 27.7854C4.23863 27.6932 4.35022 27.6327 4.47716 27.6125C4.58395 27.5955 4.70797 27.608 4.81641 27.6082L5.46287 27.611L7.58192 27.608C7.3675 27.3371 7.15795 27.0611 7.0287 26.7375C6.83113 26.2431 6.75911 25.7114 6.85841 25.1842C6.93395 24.7832 7.12679 24.4213 7.27383 24.044L8.35024 21.3335L9.26612 18.9098L9.64841 17.9044C9.8783 17.37 10.2371 16.9121 10.6996 16.5578C11.1125 16.2415 11.5859 16.0463 12.0583 15.8395L13.6584 15.1559L15.222 14.4651C15.2674 14.3504 15.4178 13.7637 15.371 13.6806C15.3519 13.6466 15.2773 13.5911 15.2472 13.5617L14.9077 13.22C14.7357 13.0372 14.5856 12.824 14.4576 12.6085C14.0572 11.9339 13.8717 11.1415 13.8514 10.3616L13.8499 9.8916C13.8501 9.83729 13.8638 9.74379 13.8511 9.69309C13.836 9.63332 13.6742 9.52388 13.6281 9.46999C13.555 9.38432 13.493 9.25674 13.4667 9.1476C13.424 8.96992 13.4438 8.75207 13.4478 8.56984C13.4715 7.50856 13.7212 6.32387 14.2666 5.40614C14.7296 4.62716 15.488 4.05567 16.328 3.73587C16.5633 3.64626 16.811 3.58831 17.0549 3.52711L17.0994 3.41617C17.1154 3.37522 17.1297 3.33705 17.1545 3.3002C17.2443 3.16684 17.3765 3.09061 17.5312 3.05936Z" fill="#1E1F1C"/>
<path d="M25.9685 25.7035C26.5382 25.6476 27.0953 25.7775 27.6312 25.9586L27.6248 27.6091L26.7764 27.5566C26.3257 27.4974 25.8516 27.4081 25.4715 27.1439C25.303 27.0267 25.0809 26.8139 25.0539 26.6024C25.0262 26.3854 25.0803 26.1991 25.2179 26.0283C25.407 25.7934 25.6849 25.7354 25.9685 25.7035Z" fill="#FCFCE4"/>
<path d="M29.6237 13.6963C29.9212 14.0436 30.3068 14.3652 30.6492 14.6666L32.4515 16.2012L31.5307 16.2003L30.2189 16.2015L28.7031 14.6254L29.6237 13.6963Z" fill="#FCFCE4"/>
<path d="M33.455 13.6572C33.5331 13.696 33.6151 13.7944 33.6789 13.8562L34.1493 14.3137L36.0978 16.2134L35.1402 16.2145L34.4383 16.2167C34.3765 16.2169 34.2581 16.2333 34.2016 16.2175C34.1878 16.2136 34.137 16.1635 34.1256 16.1539L33.8319 15.8997L32.4688 14.6773L33.455 13.6572Z" fill="#FCFCE4"/>
<path d="M15.8728 25.6382C16.1865 25.6165 16.4364 25.6989 16.7008 25.8627C16.9301 26.0046 17.1899 26.247 17.2478 26.519C17.2757 26.6501 17.2425 26.7901 17.1687 26.901C16.9076 27.2935 16.2421 27.5257 15.7983 27.6251C15.502 27.6858 15.1132 27.671 14.8549 27.4989C14.6111 27.3365 14.4318 27.0523 14.3778 26.767C14.339 26.5617 14.4104 26.3143 14.5296 26.1466C14.6511 25.9758 14.8338 25.9346 15.0222 25.8696C15.304 25.7724 15.5769 25.6815 15.8728 25.6382Z" fill="#FCFCE4"/>
<path d="M19.1504 14.2207C19.2132 14.2609 19.2086 14.4562 19.2203 14.5364C19.267 14.8548 19.3834 15.0938 19.5859 15.3409C19.5265 15.4976 19.3632 15.6806 19.2672 15.8231L17.8379 17.872L17.2318 16.9347C17.1181 16.7654 16.0959 15.3041 16.1016 15.2695C16.1048 15.2501 16.171 15.1664 16.1846 15.146C16.2394 15.0643 16.2875 14.9812 16.3278 14.8913C16.4151 14.6964 16.4457 14.4875 16.4735 14.2776C17.3884 14.6259 18.2472 14.5932 19.1504 14.2207Z" fill="#FCFCE4"/>
<path d="M36.5479 31.1445L37.6518 31.1456L37.6483 40.065L36.5469 40.0638L36.5479 31.1445Z" fill="#FCFCE4"/>
<path d="M8.24703 31.1416L8.46768 31.1435L8.46424 40.0654L7.61797 40.0639L7.35676 40.0618L7.35156 31.1453L8.24703 31.1416Z" fill="#FCFCE4"/>
<path d="M13.6411 35.3311L17.5363 35.3431L17.5418 38.1272L17.0516 38.128L13.0869 38.1289L13.0781 35.339L13.6411 35.3311Z" fill="#FCFCE4"/>
<path d="M18.6953 35.3359L23.2122 35.3396L23.2075 38.1284L18.6976 38.1289L18.6953 35.3359Z" fill="#FCFCE4"/>
<path d="M16.2242 23.1426L20.5868 23.1472L20.5764 27.6242L20.271 27.6275L18.0525 27.613C18.1566 27.4587 18.2592 27.3083 18.3254 27.1329L18.3393 27.0952C18.4254 26.866 18.4431 26.579 18.3668 26.3439C18.1972 25.8215 17.9001 25.2593 17.5026 24.8737C17.1262 24.5085 16.7339 24.4062 16.2188 24.4112L16.2242 23.1426Z" fill="#5E7153"/>
<path d="M15.0442 9.59961L20.5625 9.60013C20.5637 10.0045 20.5825 10.4319 20.531 10.8335C20.4497 11.466 20.1686 12.0353 19.7269 12.4942C19.1765 12.9993 18.5565 13.3228 17.7962 13.3354C17.0975 13.3469 16.3941 13.0291 15.906 12.5355C15.3701 11.9935 15.1205 11.3508 15.0558 10.5993C15.0275 10.2707 15.0435 9.92961 15.0442 9.59961Z" fill="#FCFCE4"/>
<path d="M18.3784 4.6709C18.6226 4.70196 18.8895 4.82769 19.105 4.94276C19.77 5.2979 20.1937 5.86002 20.4536 6.55972C20.5219 6.74358 20.55 6.94476 20.6312 7.12214C20.669 7.20468 20.7247 7.27081 20.8079 7.30982C21.0019 7.40092 21.3134 7.36044 21.5246 7.36014L22.4361 7.35958C22.6439 7.35997 22.9676 7.31666 23.1292 7.46533C23.268 7.59312 23.2945 7.7359 23.2959 7.91697C23.297 8.05834 23.2886 8.20113 23.1784 8.30425C23.1142 8.36436 23.031 8.40957 22.9435 8.42284C22.8097 8.44317 22.6548 8.43028 22.5191 8.43062L21.6509 8.43101L18.5786 8.42933L14.6328 8.43101C14.7099 7.62556 14.8269 6.88637 15.1995 6.15843C15.5956 5.3847 16.2839 4.95389 17.0876 4.69814C17.0889 4.92502 17.0415 5.41757 17.1834 5.58802C17.2421 5.65854 17.3038 5.67134 17.3915 5.67589C17.5784 5.68565 18.1544 5.74112 18.2867 5.60921C18.4408 5.45542 18.3788 4.89326 18.3784 4.6709Z" fill="#5E7153"/>
<path d="M30.3205 17.3828L37.0429 17.3941L37.0402 21.7633L30.3203 21.7649L30.3205 17.3828Z" fill="#5E7153"/>
<path d="M13.073 31.1455L23.2057 31.1457L23.2092 34.1593L13.0864 34.1531C13.0572 34.067 13.0765 33.9331 13.077 33.8414L13.0807 33.0986L13.073 31.1455Z" fill="#FCFCE4"/>
<path d="M28.7975 22.9502L35.4721 22.9542L35.4729 27.609L28.7969 27.6102L28.7975 22.9502Z" fill="#5E7153"/>
<path d="M11.335 28.7785L39.7998 28.7852L39.7976 29.9562L33.6387 29.9508L11.3825 29.9538L6.66509 29.9512L5.61897 29.9538C5.48495 29.9543 5.29168 29.9797 5.16406 29.9445L5.16544 28.799C5.26109 28.7629 5.41719 28.7851 5.52341 28.7846L6.50649 28.781L11.335 28.7785Z" fill="#FCFCE4"/>
<path d="M15.0526 15.835C15.3378 16.2103 15.5865 16.6235 15.8444 17.0183L17.0457 18.824C17.1819 19.0243 17.3253 19.3351 17.5164 19.4778C17.6514 19.5786 17.792 19.6074 17.9584 19.5789C18.0758 19.5588 18.1651 19.488 18.2434 19.4018C18.3359 19.3 18.4044 19.172 18.4828 19.059L18.9857 18.3321L20.6994 15.8617C20.8145 15.8808 20.9417 15.9506 21.0499 15.9962L21.6948 16.2717L23.497 17.0489C23.9902 17.2698 24.4172 17.5305 24.7452 17.9674C25.0928 18.4304 25.3032 19.0428 25.5193 19.5793L26.203 21.2891L27.5921 24.6891L26.5639 24.5378C25.9346 24.5038 25.2864 24.5517 24.7379 24.8913C24.598 24.9779 24.4748 25.0941 24.3523 25.2034L24.3463 19.2893L23.1829 19.2916L23.194 27.6291L21.7487 27.6283L21.749 23.8105L21.7486 22.9019C21.7485 22.7403 21.777 22.5204 21.7132 22.3715L21.7002 22.344C21.6642 22.2658 21.6203 22.2063 21.5578 22.1463C21.317 21.9147 20.9926 21.9739 20.6862 21.9748L16.9265 21.9755L15.9928 21.9767C15.8337 21.9769 15.5974 21.9431 15.4536 22.0088L15.4276 22.0219C15.3686 22.0513 15.3174 22.0836 15.2693 22.1293C15.1785 22.2156 15.1168 22.3276 15.0914 22.4499C15.0517 22.6403 15.0788 22.89 15.078 23.0861L15.0732 24.5262L13.0693 24.6042L13.0614 19.2507L11.9034 19.2509L11.893 24.6154L9.59343 24.6143L9.58978 25.8472L13.4596 25.632L13.3329 25.9229C13.1105 26.505 13.1648 27.0585 13.4091 27.6217L11.7031 27.6267C10.9667 27.6262 10.1209 27.6921 9.41872 27.4388C8.86416 27.2387 8.41952 26.9047 8.16541 26.3617C8.03087 26.0742 7.95482 25.7755 8.01072 25.4576C8.06421 25.1532 8.22926 24.8583 8.34523 24.5735L8.90021 23.1757L10.581 18.7266C10.7814 18.1791 11.065 17.7558 11.5354 17.4036C11.7998 17.2056 12.1513 17.103 12.4515 16.9688L15.0526 15.835Z" fill="#FCFCE4"/>
</g>
<defs>
<clipPath id="clip0_1446_3419">
<rect width="44" height="44" fill="white" transform="translate(0.5)"/>
</clipPath>
</defs>
</svg>
