<svg width="44" height="44" viewBox="0 0 44 44" fill="none" xmlns="http://www.w3.org/2000/svg">
<g clip-path="url(#clip0_1446_3398)">
<rect width="44" height="44" fill="#5E7153"/>
<path d="M0 0H44V44H0V0Z" fill="#FCFCE4"/>
<path d="M27.8128 5.98231L29.6458 5.97793L30.2526 5.97612C30.3897 5.97604 30.5408 5.96916 30.6736 6.00719C31.0209 6.10658 30.9998 6.38162 31.0003 6.67492L31 7.15549C30.9997 7.22338 30.9871 7.3131 31.0195 7.37334C31.0659 7.39499 31.1121 7.40118 31.1626 7.38683C31.2133 7.37244 31.2971 7.2944 31.3415 7.26003L31.728 6.9507C31.8505 6.84478 31.9703 6.70603 32.1355 6.67247C32.242 6.65086 32.3722 6.65954 32.4631 6.72472C32.5683 6.80001 32.6578 6.90743 32.7531 6.9959L33.753 7.96141L34.2205 8.40459C34.3033 8.48232 34.4002 8.55816 34.4701 8.64783C34.5378 8.73459 34.5913 8.84704 34.6001 8.95807C34.624 9.25958 34.4187 9.43502 34.2329 9.63719L33.8499 10.0602L34.0175 10.4591L34.0261 10.4856L34.8472 10.4845C34.9714 10.488 35.0795 10.5413 35.1708 10.6235C35.466 10.889 35.3941 11.3142 35.3981 11.6756C35.3986 11.7201 35.387 11.8267 35.4001 11.8631C35.4142 11.9025 35.5422 12.0105 35.5776 12.0464C35.8724 12.3449 36.1981 12.607 36.5153 12.8806L38.0723 14.204C38.3723 14.4545 38.728 14.7035 38.9933 14.9868C39.0795 15.0788 39.1287 15.192 39.1358 15.3181C39.154 15.6402 39.1284 15.9816 39.1286 16.3058L39.1279 18.7691L39.1354 21.6836L39.1369 23.4223C39.1335 23.5309 39.1262 23.6374 39.0634 23.7303C38.9716 23.8661 38.8236 23.9852 38.7057 24.0998L37.9891 24.7936L36.2892 26.4593L40.1693 29.1591C40.2783 29.2555 40.336 29.3849 40.3417 29.5295C40.3482 29.695 40.307 29.8517 40.1877 29.9711C40.1083 30.0506 39.9928 30.1245 39.8787 30.1384C39.7507 30.1541 39.6063 30.1424 39.4769 30.1421L38.7143 30.1391L36.1846 30.1425L36.1898 31.9716L36.1932 35.3668L36.1938 36.5167C36.1938 36.6938 36.2214 36.9338 36.1684 37.1018C36.1185 37.2597 36.0075 37.3899 35.8547 37.4564C35.7951 37.4824 35.7276 37.4999 35.6627 37.5049C35.1723 37.5426 34.6504 37.504 34.1563 37.503L31.0386 37.4984L15.2135 37.5001L11.5465 37.4997L10.2306 37.5006C10.0281 37.5006 9.72037 37.5398 9.53242 37.4613C9.39973 37.406 9.2667 37.2995 9.2059 37.1663C9.12791 36.9955 9.15589 36.7567 9.15593 36.572L9.15739 35.6657L9.15619 34.2381C9.15614 34.1726 9.17913 33.9358 9.15593 33.8866C9.14669 33.867 9.08628 33.8269 9.06522 33.8091L8.76775 33.561L6.17781 31.4877L5.48622 30.9374C5.35822 30.8343 5.21269 30.7322 5.10208 30.6104L5.07626 30.58C4.86434 30.315 4.93807 29.8236 4.94031 29.5001C4.94069 29.4465 4.9541 29.3437 4.92127 29.3012C4.8841 29.2531 4.79121 29.1994 4.7405 29.16C4.60756 29.057 4.47654 28.954 4.35365 28.8388C3.69913 28.2254 3.17114 27.4942 2.83032 26.662C2.18031 25.0748 2.37034 23.2375 3.27208 21.793C3.38698 21.6089 3.52257 21.4381 3.66169 21.272L3.91637 20.9789C3.93515 20.9578 3.98569 20.9142 3.99341 20.8924C4.00844 20.85 3.98643 20.6909 3.98636 20.6379L3.98788 19.446C3.98841 19.2669 3.95262 18.9771 4.02488 18.8151L4.03804 18.7878C4.07082 18.7157 4.09973 18.6574 4.15651 18.6002C4.22591 18.5303 4.31932 18.462 4.41407 18.4318C4.56094 18.385 4.75086 18.3992 4.90507 18.3981L5.79109 18.3958L5.79573 15.9317L5.79349 15.5377C5.79345 15.5286 5.79685 15.4641 5.79289 15.457C5.73643 15.3563 5.58432 15.2501 5.50539 15.1584C5.19619 14.799 4.9547 14.3207 4.88462 13.8482C4.77037 13.078 4.90262 12.3012 5.37867 11.6662C5.78593 11.1229 6.53024 10.7487 7.19681 10.6516C7.694 10.5791 8.20499 10.6846 8.66381 10.877C8.98182 11.0158 9.25278 11.2221 9.49714 11.4656C10.3866 12.3519 10.5395 13.7263 9.90754 14.8025C9.80544 14.9763 9.68298 15.1275 9.54905 15.2774C9.4934 15.3397 9.38027 15.4344 9.34362 15.5051C9.33592 15.5199 9.34362 15.6101 9.34362 15.6297L9.34357 16.0281L9.3431 18.4096L10.355 18.4084C10.4978 18.4082 10.6859 18.3876 10.8243 18.4202C10.8984 18.4376 10.9814 18.4973 11.0346 18.55C11.1152 18.63 11.1927 18.7415 11.221 18.8525C11.2743 19.062 11.241 19.3449 11.2406 19.5613L11.2397 20.9435C11.4211 21.0787 11.5633 21.2537 11.7026 21.4299C12.1502 21.996 12.4053 22.5961 12.6697 23.2588L14.9653 23.2559L15.4382 17.3746L15.4435 17.3484C15.4658 17.2336 15.5216 17.1529 15.6022 17.0688C15.7209 16.9449 15.8707 16.8432 16.0037 16.7344L16.9015 16.011C17.1384 15.8215 17.3754 15.5796 17.6357 15.4265C17.7257 15.3736 17.8116 15.3593 17.9142 15.3594C18.1448 15.3596 18.2969 15.537 18.4622 15.6779L18.8931 16.0389L19.6388 16.6594L20.0834 17.0204C20.1711 17.0939 20.2768 17.1731 20.3305 17.2763C20.4116 17.4326 20.4001 17.73 20.4133 17.9088L20.4923 18.8973L20.8545 23.1144L20.8642 23.2205C20.8649 23.2276 20.8602 23.238 20.8662 23.242C20.8999 23.2652 25.999 23.2444 26.5328 23.2449L27.4508 23.2464C27.61 23.2468 27.7867 23.2315 27.9441 23.2545C28.0664 23.2724 28.1693 23.3184 28.2555 23.4069C28.3324 23.486 28.3844 23.5645 28.4074 23.6733C28.4592 23.917 28.4226 24.2517 28.4235 24.5043L28.4314 26.2745L30.0332 24.7734C30.4714 24.358 30.9001 23.8831 31.375 23.5113C31.4366 23.463 31.5143 23.4118 31.5923 23.3966C31.6918 23.3771 31.8291 23.4 31.9205 23.4445C32.0484 23.5069 32.1721 23.6111 32.2897 23.6924L33.0183 24.2005L35.2859 25.7885L37.9613 23.1712L37.946 15.6709L35.3755 13.5027C35.3211 13.5477 35.2801 13.6054 35.2323 13.6573C35.0407 13.8654 34.7846 13.8346 34.5277 13.838L34.0197 13.8546L33.8965 14.2099C33.8921 14.221 33.8554 14.3009 33.8571 14.3085C33.8607 14.3253 33.9501 14.4046 33.9685 14.4232C34.1461 14.6031 34.332 14.7794 34.4976 14.9704C34.5555 15.0373 34.6202 15.1078 34.6292 15.1999C34.6437 15.3492 34.6187 15.4526 34.5176 15.5661C34.2103 15.911 33.8484 16.2232 33.5207 16.5507L32.8965 17.1743C32.7795 17.2908 32.6633 17.4247 32.5327 17.5245C32.4594 17.5804 32.4038 17.606 32.31 17.6087C32.1349 17.6135 32.0125 17.5026 31.8824 17.3997C31.6733 17.2345 31.4807 17.0503 31.2864 16.8683C31.2559 16.8855 31.0536 16.9732 31.0415 16.9919C31.0362 17.0001 31.0415 17.1059 31.0415 17.1223L31.0404 17.6403C31.0395 17.8382 31.0698 18.0693 30.9205 18.2241C30.8521 18.295 30.7875 18.3271 30.69 18.3303L28.7177 18.3382L28.0743 18.3357C27.9469 18.3342 27.8074 18.341 27.6822 18.3168C27.6054 18.302 27.5467 18.2605 27.4916 18.2063C27.4485 18.1637 27.4118 18.1139 27.3939 18.0552C27.3637 17.9567 27.3773 17.821 27.3762 17.7171L27.3714 17.0289C27.2501 16.9768 27.1396 16.9186 27.0269 16.8498C26.8682 16.9185 26.6916 17.1419 26.5541 17.2614C26.3685 17.4228 26.1752 17.6235 25.9097 17.5987C25.81 17.5893 25.7134 17.5107 25.6396 17.4487C25.3227 17.1823 25.0341 16.8467 24.7363 16.5561L24.0589 15.8957C23.9535 15.793 23.8241 15.6898 23.7373 15.572C23.6541 15.4589 23.6149 15.3042 23.6405 15.1646C23.6643 15.0349 23.78 14.9362 23.8693 14.8469C24.0678 14.6484 24.2704 14.42 24.498 14.257L24.5235 14.239C24.5161 14.2018 24.4357 13.9568 24.4157 13.9447C24.4045 13.938 24.2802 13.9452 24.2648 13.9452L23.7413 13.944C23.5294 13.943 23.2442 13.9727 23.0818 13.8101C22.9816 13.7098 22.9497 13.6021 22.9468 13.464L22.9379 11.476L22.9392 10.8864C22.9409 10.8397 22.9345 10.7524 22.948 10.7097C22.9623 10.6645 23.0445 10.5673 23.0797 10.5336C23.2531 10.3674 23.4998 10.4014 23.7204 10.4008L24.3485 10.4014C24.37 10.3387 24.5013 10.0626 24.4931 10.0264C24.4901 10.0131 24.4176 9.94446 24.4047 9.93084C24.2019 9.71741 23.7718 9.42157 23.7655 9.1091C23.7621 8.9444 23.7919 8.84338 23.9053 8.72178L25.0834 7.53108L25.4975 7.10685C25.5682 7.0344 25.6429 6.94262 25.7252 6.88375C25.8266 6.81139 25.9377 6.78733 26.0602 6.78351C26.3672 6.77397 26.52 6.98142 26.72 7.17813L27.0935 7.5309C27.1477 7.47603 27.1983 7.43749 27.2657 7.39963C27.2726 7.39572 27.2826 7.39499 27.2866 7.38812C27.2995 7.3662 27.2878 7.23738 27.2881 7.20202C27.2902 6.93849 27.2575 6.6057 27.3176 6.35309C27.3336 6.28563 27.3791 6.21486 27.4244 6.16338C27.544 6.02717 27.6381 5.99542 27.8128 5.98231Z" fill="#1E1F1C"/>
<path d="M6.98455 16.0312C7.3937 16.1184 7.75696 16.1047 8.1671 16.04L8.16538 18.4048L6.97656 18.4106L6.98455 16.0312Z" fill="#FCFCE4"/>
<path d="M6.10367 29.4337L9.16253 29.4326L9.17778 32.3832L6.10156 29.902L6.10367 29.4337Z" fill="#FCFCE4"/>
<path d="M5.67676 19.5621L10.0493 19.5718L10.0447 20.8353L9.55293 20.8363L5.17188 20.8422L5.17218 19.5795C5.25781 19.5312 5.56474 19.5632 5.67676 19.5621Z" fill="#FCFCE4"/>
<path d="M9.98631 26.9301L11.0104 26.9248C10.7136 27.4366 10.2281 27.893 9.76154 28.25L6.47761 28.254L5.7263 28.2552C5.66168 28.2551 5.54102 28.2702 5.48116 28.2537C5.45753 28.2472 5.4397 28.2275 5.41899 28.2144C5.01156 27.8305 4.60684 27.4215 4.3125 26.9421L9.98631 26.9301Z" fill="#5E7153"/>
<path d="M7.37429 11.8449C7.73768 11.8035 8.11765 11.8928 8.42337 12.0944C8.74486 12.3064 9.00435 12.6892 9.08011 13.0672C9.16033 13.4672 9.07624 13.8936 8.84593 14.231C8.58094 14.6192 8.21613 14.8051 7.76225 14.8864C7.36277 14.913 7.03118 14.8445 6.69908 14.6166C6.38107 14.3983 6.11402 14.0417 6.04428 13.6573C5.96891 13.242 6.03981 12.8296 6.28568 12.4809C6.54645 12.1112 6.93717 11.9201 7.37429 11.8449Z" fill="#FCFCE4"/>
<path d="M4.57989 22.0219L10.6675 22.0195C10.7659 22.0988 10.8497 22.252 10.9154 22.3605C11.0905 22.6498 11.2489 22.9471 11.3834 23.2574L10.6865 23.2568L3.86719 23.2521C4.04513 22.8129 4.3015 22.4036 4.57989 22.0219Z" fill="#5E7153"/>
<path d="M15.2656 33.9885L18.9411 33.9844L18.935 36.3058L15.2701 36.2991L15.2656 33.9885Z" fill="#5E7153"/>
<path d="M27.5938 33.9648L31.3243 33.9692L31.3229 36.303L27.6026 36.2919L27.5938 33.9648Z" fill="#5E7153"/>
<path d="M20.1328 33.9845L23.9099 33.9814L23.8977 36.2936L20.1379 36.295L20.1328 33.9845Z" fill="#5E7153"/>
<path d="M3.63281 24.4336L11.6225 24.4377C11.6252 24.8436 11.5832 25.2392 11.5036 25.6367C11.4966 25.6883 11.4951 25.7184 11.4594 25.7579L3.76666 25.7322C3.72866 25.6124 3.71789 25.4824 3.70042 25.358C3.65678 25.0471 3.64284 24.7474 3.63281 24.4336Z" fill="#5E7153"/>
<path d="M17.8912 16.7285L19.2197 17.8129C19.2684 18.0053 19.2617 18.2258 19.2757 18.4239L19.3564 19.3852L19.6709 23.2476L17.9717 23.2473L16.1562 23.2482L16.5752 17.8089L17.8912 16.7285Z" fill="#FCFCE4"/>
<path d="M31.7497 24.7822L33.2168 25.7913L35.0564 27.0576L36.8823 28.3268C37.175 28.5345 37.4857 28.7326 37.7584 28.9657L34.4533 28.9592L28.4469 28.9499L28.4453 27.9089L31.7497 24.7822Z" fill="#FCFCE4"/>
<path d="M28.552 7.17676L29.7828 7.18041L29.7995 8.24874C30.3896 8.36729 30.9578 8.54295 31.4368 8.92374C31.5228 8.8797 31.6099 8.77386 31.6814 8.70576L32.245 8.1723L33.1328 9.03795L33.1637 9.06386C33.1354 9.13089 33.0547 9.19513 33.0031 9.24725L32.3819 9.82097C32.77 10.2746 33.0078 11.0017 33.1236 11.5796L33.1279 11.6022L34.2262 11.6246L34.2267 12.6995L33.1158 12.6976C33.0095 13.3712 32.8104 13.941 32.4181 14.5051L33.1417 15.2756L32.2597 16.1532C32.1501 16.0847 32.0556 15.9663 31.9604 15.8768C31.8086 15.7341 31.6454 15.6006 31.5039 15.4475L31.4881 15.4302C31.3155 15.4791 31.0991 15.6562 30.9363 15.7433C30.6011 15.9224 30.2533 16.0319 29.8865 16.1229L29.8861 17.177L29.667 17.1804L28.5267 17.1838L28.5307 16.1209C27.9018 16.0257 27.3378 15.751 26.8192 15.3915L26.0301 16.1978L25.1308 15.2979C25.1862 15.1937 25.3271 15.0831 25.413 14.9966L25.9343 14.4468C25.6039 13.9275 25.3404 13.4001 25.2275 12.7902L24.0625 12.7844L24.0769 11.5937L25.2588 11.5796C25.2691 11.4664 25.3066 11.3473 25.3331 11.2366C25.4512 10.7424 25.6506 10.2913 25.9487 9.87936C25.6623 9.64523 25.4176 9.34956 25.1679 9.07705L26.064 8.15236L26.9249 8.94926C27.4406 8.60586 27.9375 8.40399 28.5404 8.26799L28.552 7.17676Z" fill="#5E7153"/>
<path d="M29.1512 9.37656C29.8161 9.32771 30.4974 9.61079 30.9916 10.0418C31.5619 10.5391 31.8804 11.2217 31.9316 11.9709C31.9828 12.7197 31.747 13.4488 31.2448 14.0099C30.7042 14.6138 30.072 14.9196 29.2634 14.9671C29.0736 14.9726 28.8591 14.9651 28.6735 14.9229C28.1659 14.8074 27.7583 14.6234 27.3526 14.2887C26.8369 13.8632 26.4865 13.1099 26.4322 12.4499C26.368 11.6696 26.6039 10.9136 27.12 10.3231C27.6508 9.71571 28.3577 9.42984 29.1512 9.37656Z" fill="#1E1F1C"/>
<path d="M29.0869 10.5572C29.4649 10.5244 29.8749 10.6748 30.1673 10.9105C30.4671 11.1521 30.7079 11.5911 30.749 11.977C30.7965 12.4238 30.6625 12.8425 30.3787 13.187C30.0743 13.5567 29.6947 13.7169 29.2266 13.7604C28.9072 13.7947 28.5115 13.6729 28.255 13.4819C27.8948 13.2139 27.6298 12.8326 27.5679 12.3803C27.509 11.9499 27.651 11.4974 27.9181 11.1586C28.2092 10.7896 28.6325 10.6154 29.0869 10.5572Z" fill="#FCFCE4"/>
<path d="M12.8228 24.4355L27.246 24.4394L27.255 27.4245L27.2584 28.9131C27.2593 29.1627 27.2141 29.5303 27.3001 29.7622C27.3536 29.9066 27.5006 30.0284 27.6378 30.0922L27.6681 30.1055C27.7088 30.1238 27.7425 30.1361 27.7877 30.1401C28.0484 30.1635 28.3306 30.1403 28.5933 30.1401L30.0919 30.1433L35.0146 30.1429L35.0032 36.2956L32.5242 36.2919L32.5232 34.1659C32.5226 33.8561 32.5584 33.4937 32.5103 33.1894C32.4918 33.0725 32.4387 32.9737 32.3531 32.892C32.2881 32.8299 32.1954 32.778 32.1063 32.7636C31.8804 32.7273 31.6118 32.7541 31.3821 32.7541L29.8093 32.7562C29.809 32.7034 29.7849 32.3393 29.804 32.3089C29.8291 32.2687 29.994 32.1853 30.0418 32.1501C30.1204 32.0924 30.179 32.0251 30.2355 31.9462C30.4184 31.6912 30.5122 31.3789 30.4503 31.0652C30.3953 30.7861 30.2389 30.5316 30.0047 30.3699C29.7402 30.1873 29.3832 30.1442 29.0713 30.2081C28.7768 30.2684 28.5506 30.4111 28.3854 30.6623C28.2211 30.9121 28.1545 31.241 28.22 31.5354C28.3051 31.9183 28.5397 32.13 28.8573 32.3293L28.8681 32.7603L27.436 32.7622C27.2491 32.7628 27.003 32.7346 26.8223 32.7749C26.7225 32.7972 26.6255 32.8523 26.5535 32.9245C26.3476 33.1308 26.4002 33.4142 26.4001 33.681L26.4008 34.3209L26.4008 36.2943L25.0963 36.2951L25.0985 34.1732L25.0999 33.5153C25.0998 33.3993 25.1087 33.2627 25.0784 33.1501L25.072 33.1286C25.0502 33.0531 25.0125 32.9966 24.9569 32.9407C24.88 32.8635 24.7769 32.8013 24.6704 32.7763C24.4773 32.7309 24.2196 32.7603 24.0202 32.7595L22.6733 32.7519L22.6792 32.4284C22.6794 32.4164 22.6778 32.3432 22.6808 32.3379C22.6919 32.318 22.7905 32.2588 22.814 32.2407C22.9008 32.1741 22.9829 32.0978 23.056 32.0164C23.2773 31.7696 23.3557 31.4425 23.3296 31.1178C23.306 30.8253 23.1466 30.532 22.918 30.3481C22.6804 30.157 22.3427 30.0603 22.0406 30.1003C21.7397 30.1403 21.4685 30.3132 21.2873 30.5541C21.0784 30.8317 21.0092 31.1649 21.0634 31.5051L21.0691 31.5387C21.0756 31.5789 21.0814 31.6182 21.0948 31.6569C21.201 31.9628 21.4443 32.1726 21.7243 32.3137L21.7283 32.7657L17.2065 32.7616L17.2051 32.2827C17.3857 32.2117 17.5254 32.0878 17.6401 31.9336C17.8136 31.7007 17.8883 31.3714 17.8405 31.0851L17.8352 31.0553L17.807 30.9157C17.7264 30.633 17.5228 30.3824 17.2679 30.2389C16.9888 30.0818 16.6743 30.0435 16.3676 30.1341C16.0669 30.2229 15.8103 30.4286 15.6616 30.7042C15.5266 30.9545 15.4888 31.3035 15.577 31.5744C15.6904 31.9228 15.9388 32.1467 16.2528 32.3139L16.2551 32.7695L15.0592 32.765C14.8969 32.765 14.6789 32.7391 14.5259 32.7806C14.417 32.81 14.3065 32.8909 14.2269 32.9695C14.1485 33.0468 14.098 33.1556 14.079 33.2633C14.0624 33.3574 14.0709 33.4665 14.0707 33.5619L14.0713 34.1737L14.0732 36.3024L10.3359 36.303L10.3471 29.3176L10.9654 28.808C11.9003 27.9491 12.5364 26.8046 12.7375 25.5461C12.7965 25.1767 12.8087 24.8085 12.8228 24.4355Z" fill="#FCFCE4"/>
</g>
<defs>
<clipPath id="clip0_1446_3398">
<rect width="44" height="44" fill="white"/>
</clipPath>
</defs>
</svg>
