<svg width="45" height="44" viewBox="0 0 45 44" fill="none" xmlns="http://www.w3.org/2000/svg">
<g clip-path="url(#clip0_1446_3337)">
<rect width="44" height="44" transform="translate(0.5)" fill="#5E7153"/>
<path d="M0.5 0H44.5V44H0.5V0Z" fill="#FCFCE4"/>
<path d="M22.4446 33.9102C22.5666 33.9228 22.6851 33.9368 22.7911 34.004C22.9354 34.0955 23.059 34.2467 23.0914 34.4183C23.124 34.5908 23.0717 34.7761 22.9656 34.9133C22.8506 35.062 22.7345 35.1141 22.5511 35.1364C22.3998 35.1324 22.2597 35.1308 22.1311 35.0375C22.0061 34.9468 21.893 34.7852 21.8737 34.6283C21.8518 34.4495 21.8839 34.3146 21.9922 34.1719C22.1069 34.0209 22.2598 33.9391 22.4446 33.9102Z" fill="#1E1F1C"/>
<path d="M22.3585 36.6537C22.4954 36.6488 22.6257 36.6413 22.7548 36.6974C22.9086 36.7643 23.0104 36.8866 23.0706 37.0405C23.1325 37.1989 23.1164 37.3486 23.0476 37.5023C22.9582 37.7021 22.8278 37.7952 22.6304 37.8678C22.4838 37.8772 22.3683 37.8871 22.2314 37.8214C22.0715 37.7446 21.9521 37.5968 21.8981 37.4292C21.8513 37.2835 21.8784 37.0901 21.954 36.9583C22.045 36.7994 22.1859 36.7042 22.3585 36.6537Z" fill="#1E1F1C"/>
<path d="M5.90973 13.797L13.7509 13.793L13.7374 15.0176L8.50453 15.0122L6.56986 15.0172L6.57562 19.7451L5.38195 19.7524L5.37989 16.1185L5.38006 14.9557C5.38027 14.7559 5.36665 14.5448 5.38324 14.346C5.3911 14.2522 5.42754 14.1441 5.47751 14.0648C5.57673 13.9074 5.73631 13.8368 5.90973 13.797Z" fill="#1E1F1C"/>
<path d="M31.1915 13.793L37.1078 13.7912L38.4202 13.792C38.6216 13.7913 38.8691 13.7591 39.0645 13.8001L39.0897 13.8059C39.2228 13.8349 39.3386 13.9005 39.4355 13.997C39.5426 14.1039 39.581 14.2269 39.5902 14.374C39.6103 14.6955 39.5948 15.0254 39.5933 15.3476L39.5881 17.1765L39.5899 23.3437L39.5969 28.8054L39.6008 40.0054L40.2701 40.0031C40.3903 40.003 40.5256 39.9911 40.6431 40.0152L40.6684 40.0208C40.8383 40.0568 40.9625 40.1383 41.068 40.2786C41.1596 40.4005 41.1919 40.571 41.1658 40.7187C41.1347 40.8949 41.0466 41.0462 40.8941 41.1427C40.8087 41.1966 40.7046 41.2281 40.604 41.2348C40.1311 41.2661 39.637 41.232 39.1617 41.2318L36.0406 41.2326H26.1851L9.69864 41.2283L5.73928 41.232L4.81034 41.2301C4.66849 41.2296 4.49477 41.2488 4.357 41.2119C4.17232 41.1626 4.01724 41.045 3.92935 40.8743C3.86833 40.7558 3.8456 40.5546 3.89147 40.4256C3.94943 40.2627 4.10576 40.0948 4.26626 40.0305L4.2954 40.0195C4.49456 39.9426 4.8335 39.9827 5.05247 39.9836L5.12152 20.7916L7.4585 23.2139L8.21188 24.0031C8.33872 24.1384 8.48842 24.2766 8.59138 24.4304C8.69072 24.5788 8.7217 24.7424 8.77189 24.9108L9.02678 25.7643C9.1217 26.0412 9.25163 26.3164 9.36709 26.5859L12.6887 34.1542L13.4624 35.8849C13.6009 36.1938 13.7243 36.5161 13.8867 36.8132C13.9527 36.934 13.9624 37.0478 13.9773 37.1822C13.9362 37.2815 13.8786 37.3948 13.7936 37.4631C13.6153 37.6063 13.3497 37.6899 13.1409 37.7835L11.7738 38.393C11.5838 38.4834 11.3953 38.5677 11.1814 38.5019C11.0485 38.4611 10.9175 38.3629 10.8409 38.2457C10.7636 38.1272 10.7123 37.9732 10.6553 37.8438L10.2791 36.9636L8.85632 33.7967C8.65179 33.3505 8.47966 32.8837 8.23865 32.4558C8.20461 32.6208 8.24079 32.8611 8.24389 33.0324L8.25678 34.2458L8.2725 39.9855L14.3275 39.993L14.3175 38.5015L13.8932 38.5139C13.9268 38.2539 13.8936 37.9877 13.922 37.7263C13.9295 37.6563 13.9326 37.5816 13.9829 37.5274C14.196 37.2976 14.7587 37.363 15.0421 37.3626L15.0491 36.1185L13.9853 36.1119C14.103 35.9235 14.2648 35.7517 14.3997 35.5736C14.5471 35.3788 14.6831 35.1478 14.8535 34.9746C14.8661 34.9618 14.8748 34.9422 14.892 34.9371C14.969 34.9142 15.1269 34.9337 15.211 34.9325L16.2737 34.9191L16.2744 34.0188C16.2745 33.9228 16.2532 33.769 16.2882 33.6811L17.4954 33.6802L17.4933 34.6099C17.4937 34.6913 17.4746 34.8499 17.5073 34.9209L18.9969 34.9354L19.8799 36.1169L18.8867 36.1164L18.8926 37.3584L19.5386 37.361C19.7488 37.3718 19.9199 37.4718 20.0535 37.6299C20.2713 37.8875 20.2219 38.2188 20.1981 38.5289L19.5689 38.5127C19.5306 38.5921 19.556 38.7831 19.5559 38.8809L19.5552 39.991L23.9083 40.0052L25.0207 35.8938L25.3758 34.6549L25.9922 32.4677L26.2775 31.4316C26.3671 31.0872 26.4485 30.7056 26.6089 30.3866C26.7497 30.1066 26.9754 29.8872 27.2447 29.7303C27.4507 29.6104 27.6914 29.5168 27.9301 29.4943C28.3484 29.455 28.7888 29.4809 29.2096 29.4805L31.6579 29.4792L34.6433 29.4786L35.7167 29.4789C36.0036 29.4794 36.3057 29.4584 36.5846 29.5362C36.8944 29.6226 37.1931 29.8484 37.3487 30.1316C37.4647 30.3428 37.5383 30.5872 37.5081 30.8298C37.4919 30.9598 37.4459 31.0898 37.4133 31.2165L37.2195 31.9498L36.7343 33.7819L35.8388 37.2004L35.1015 40.009L38.3986 40.0003L38.4151 15.021L31.2005 15.0004L31.1915 13.793Z" fill="#1E1F1C"/>
<path d="M7.8501 26.2109L7.87115 26.2174C7.99971 26.3532 8.06864 26.583 8.13515 26.7545L7.0798 27.185L6.78125 26.6254L7.8501 26.2109Z" fill="#FCFCE4"/>
<path d="M6.08199 23.5703C6.2026 23.6666 6.30242 23.7914 6.40645 23.9051L6.8727 24.4011C7.06967 24.6105 7.2858 24.7997 7.47388 25.0177L7.00049 25.2002L6.1632 25.538L5.99412 25.1715C5.97758 25.1427 6.07245 23.732 6.08199 23.5703Z" fill="#FCFCE4"/>
<path d="M16.2579 36.1154L17.6764 36.1152L17.6725 37.3594L16.2578 37.3566L16.2579 36.1154Z" fill="#FCFCE4"/>
<path d="M15.5234 38.5654L18.3267 38.5674L18.3225 39.9864L15.5288 39.9905L15.5234 38.5654Z" fill="#FCFCE4"/>
<path d="M8.53795 27.9043C8.70703 28.1822 8.82541 28.5136 8.9563 28.8127L9.59202 30.238L11.5797 34.6961L12.4983 36.7165L11.6618 37.0948L7.67188 28.237C7.97579 28.1534 8.25346 28.0411 8.53795 27.9043Z" fill="#5E7153"/>
<path d="M6.25378 28.1631C6.47855 28.5761 6.6573 29.0339 6.84262 29.4665C6.91417 29.6336 7.03912 29.8478 7.06456 30.0274C7.10581 30.319 7.0689 30.6688 7.06688 30.966L7.06073 32.9056L7.07199 39.9961L6.25 39.9964L6.25378 28.1631Z" fill="#FCFCE4"/>
<path d="M28.1653 30.7106L36.2869 30.71L35.4435 33.928L34.7148 36.7791L34.2454 38.592C34.1639 38.8961 34.1041 39.2629 33.9441 39.5358C33.7942 39.7914 33.5541 39.9237 33.2728 39.9912C33.0007 40.0211 32.7079 40.001 32.4333 40.0014L30.8374 40.0022L25.1719 39.9978C25.2206 39.6751 25.3401 39.3509 25.4263 39.0354L26.0318 36.858L27.1009 33.006L27.6224 31.1601C27.6456 31.0849 27.6744 31.0159 27.7236 30.9535C27.8419 30.8034 27.9783 30.7324 28.1653 30.7106Z" fill="#5E7153"/>
<path d="M22.4048 1.814L22.5306 1.80957C23.2141 1.81873 23.904 2.24337 24.2158 2.8503C24.2631 2.94247 24.3082 3.03667 24.3434 3.13418C24.3493 3.15033 24.3757 3.24658 24.3836 3.25343C24.4064 3.27318 24.5464 3.29751 24.5824 3.30759C24.7774 3.36212 24.9762 3.42171 25.1648 3.4956C25.9203 3.79142 26.5714 4.27303 27.1275 4.85694C27.696 5.45378 28.0751 6.26099 28.3018 7.04512C28.3555 7.23096 28.36 7.47468 28.4307 7.6469C28.4462 7.68463 28.5678 7.77417 28.6024 7.80967C28.8921 8.10718 29.0246 8.60102 29.0097 9.00622C28.9916 9.50053 28.6848 9.97456 28.2975 10.2646C28.1758 10.3558 28.0293 10.4045 27.9172 10.5082C27.9432 10.5623 27.9754 10.5474 28.0306 10.5504C28.4985 10.5756 28.8966 10.6083 29.2978 10.8789C29.6981 11.1489 29.9432 11.5922 30.0253 12.0608C30.1041 12.5113 29.9685 13.0143 29.7061 13.3839C29.3745 13.8507 28.9331 14.0461 28.3851 14.1413C28.222 14.1696 28.0539 14.1168 27.8982 14.1469L27.8949 14.2108C27.8644 14.5005 27.7519 14.8229 27.6471 15.0942C27.5187 15.4265 27.3847 15.7529 27.1997 16.0587C26.8607 16.6191 26.3771 17.129 25.878 17.5483L25.8934 19.5547L26.7459 19.8844L30.1692 21.192C30.5953 21.3572 31.0512 21.4778 31.4577 21.6888C31.8966 21.9168 32.2889 22.1747 32.6407 22.5235C33.3893 23.266 33.911 24.2098 34.0222 25.2693C34.0643 25.6707 34.0488 26.0881 34.0495 26.4919L34.0525 28.3818L33.2231 28.3843C33.1112 28.3845 32.9497 28.4066 32.8433 28.3749L32.854 26.4588C32.8541 26.1602 32.8768 25.8388 32.8395 25.5435C32.7957 25.1973 32.7333 24.8577 32.5932 24.5353C32.3012 23.8628 31.7574 23.2448 31.1061 22.8997C30.57 22.6157 29.9487 22.4373 29.3828 22.217L29.733 23.8168C29.8579 24.3468 30.0259 24.8951 30.0806 25.4359C30.0476 25.5216 30.0037 25.6385 29.9299 25.6969C29.7967 25.8021 29.5685 25.8669 29.4101 25.9322C29.0231 26.0916 28.5808 26.2523 28.222 26.467C28.3572 26.6979 28.561 26.8916 28.6816 27.1238C28.7397 27.2357 28.749 27.3659 28.7056 27.486C28.6773 27.5646 28.6269 27.6347 28.5648 27.6898C28.4547 27.7874 28.329 27.8699 28.2163 27.9655L26.9547 29.0349L24.1884 31.4009L23.3793 32.0971C23.1604 32.2905 22.9362 32.5573 22.6773 32.6893L22.5736 32.7153C22.4342 32.7349 22.2817 32.6815 22.1719 32.5962C21.7513 32.2695 21.3577 31.8831 20.9528 31.5358L18.3653 29.3016L17.2138 28.2922C16.9808 28.092 16.7111 27.9053 16.5028 27.6795C16.4078 27.5766 16.3726 27.4415 16.3605 27.3054C16.3306 26.9677 16.6044 26.7182 16.803 26.476C16.6639 26.3885 16.4983 26.3316 16.3487 26.2627L15.5859 25.9028C15.3846 25.8117 15.1111 25.7282 14.9759 25.5467C14.9112 25.4599 14.8875 25.3509 14.8932 25.2442C14.8994 25.1308 14.941 25.0108 14.9697 24.9011L15.0952 24.3931L15.5944 22.1982C14.798 22.4961 13.835 22.7469 13.2178 23.3638C12.7002 23.8811 12.3217 24.5197 12.1854 25.2442C12.0954 25.7225 12.1026 26.2142 12.1049 26.6989L12.1118 28.3408L10.9187 28.3531L10.9177 26.5447C10.9169 26.0602 10.8945 25.5731 10.9712 25.0931C11.0335 24.7031 11.1631 24.3084 11.3228 23.9478C11.6971 23.1023 12.3136 22.4119 13.0818 21.9056C13.5623 21.589 14.1161 21.4173 14.6507 21.2187L16.4648 20.5547L19.1116 19.5415L19.1194 18.0007C19.1196 17.891 19.1493 17.6643 19.1186 17.5668C19.1031 17.5179 18.6298 17.1334 18.5482 17.0489C17.7641 16.2373 17.2638 15.2259 17.0749 14.1177L16.7312 14.1559C16.3017 14.1609 15.7872 13.9079 15.4894 13.6065C15.1508 13.2639 14.9519 12.7373 14.9669 12.2571C14.9831 11.7395 15.1842 11.2997 15.5607 10.9466C15.8149 10.708 16.1922 10.5151 16.5395 10.4679C16.6974 10.4464 16.8608 10.4555 17.0196 10.4603C16.7776 10.3375 16.5651 10.204 16.3806 10.0015C16.0996 9.69307 15.9276 9.24431 15.9538 8.82631C15.9816 8.3842 16.185 7.9644 16.5187 7.67109C16.554 7.64003 16.5683 7.47163 16.5762 7.41972C16.6015 7.25335 16.6435 7.09024 16.6872 6.9279C16.8837 6.19756 17.2439 5.58015 17.7292 5.0057C18.3433 4.27894 19.1539 3.76012 20.0364 3.41969C20.1775 3.36527 20.3223 3.32535 20.4675 3.28378C20.4907 3.27713 20.5799 3.25977 20.5948 3.24779C20.5997 3.24382 20.6312 3.16734 20.6353 3.15841C20.6801 3.06012 20.7235 2.96006 20.7772 2.86624C20.8572 2.72657 20.9562 2.58985 21.0638 2.47019C21.4196 2.07471 21.8722 1.84606 22.4048 1.814Z" fill="#1E1F1C"/>
<path d="M22.4411 23.6113C22.7099 23.8127 22.9561 24.1025 23.1914 24.3435C22.97 24.4148 22.7657 24.4695 22.5337 24.4934C22.2485 24.4946 22.005 24.4509 21.7578 24.3L22.4411 23.6113Z" fill="#FCFCE4"/>
<path d="M16.6444 11.6714C16.772 11.6527 16.897 11.6637 17.025 11.6719L17.0148 12.9065C16.8864 12.9368 16.7069 12.917 16.5775 12.8916C16.4388 12.8218 16.2988 12.7008 16.2261 12.5604C16.1586 12.4304 16.1577 12.2683 16.2036 12.1317C16.277 11.9128 16.4434 11.7675 16.6444 11.6714Z" fill="#FCFCE4"/>
<path d="M27.8984 11.7637C28.1344 11.7615 28.43 11.7508 28.6265 11.9013C28.732 11.9822 28.8159 12.1658 28.8227 12.2967C28.8314 12.4689 28.7548 12.6036 28.6519 12.7316C28.4169 12.9436 28.1981 12.917 27.9035 12.9047L27.8984 11.7637Z" fill="#FCFCE4"/>
<path d="M24.104 25.1602L24.7039 25.7127C24.6751 25.8473 24.6006 25.9915 24.548 26.1198L24.1472 27.0544L24.0172 27.3523C23.971 27.2357 23.9707 27.0592 23.9523 26.9318L23.7578 25.3921L24.104 25.1602Z" fill="#FCFCE4"/>
<path d="M20.89 25.1953C20.9951 25.2127 21.1583 25.3488 21.2524 25.4095L21.0044 27.3636C20.952 27.2994 20.9227 27.2058 20.8899 27.1297L20.3125 25.7262L20.89 25.1953Z" fill="#FCFCE4"/>
<path d="M22.3283 25.7025L22.6933 25.6914L23.0871 29.3306C23.0071 29.4507 22.9613 29.6361 22.9095 29.7724L22.5539 30.6968L22.5282 30.7714L22.4994 30.7446C22.4454 30.6741 22.4043 30.5155 22.369 30.4294C22.3057 30.275 21.9097 29.3918 21.9222 29.2902L22.1001 27.7467L22.3283 25.7025Z" fill="#FCFCE4"/>
<path d="M20.5185 4.51172C20.5808 4.53999 20.5568 4.7095 20.5568 4.77434L20.5531 5.89914C20.5518 6.22084 20.5332 6.53787 20.6083 6.85395C20.6457 7.01138 20.7269 7.16598 20.7932 7.31307L18.1299 7.31109L17.8203 7.30615L17.9946 6.80419C18.4844 5.73345 19.4285 4.92882 20.5185 4.51172Z" fill="#5E7153"/>
<path d="M24.4268 4.48926L25.0094 4.7521C25.3268 4.92148 25.6544 5.12159 25.9271 5.3571C26.5269 5.8753 26.9071 6.55902 27.1353 7.30792L26.8933 7.31102L24.1328 7.30779C24.2429 7.11112 24.3441 6.89413 24.3876 6.67151C24.4417 6.39441 24.4222 6.08778 24.4235 5.80552L24.4268 4.48926Z" fill="#5E7153"/>
<path d="M22.4828 3.01465C22.6243 3.01593 22.7385 3.04514 22.863 3.11528C23.0381 3.21386 23.1961 3.41039 23.2401 3.60757C23.2716 3.74861 23.256 3.9184 23.2566 4.06306L23.2576 4.976V5.93231C23.2571 6.09658 23.2683 6.26906 23.2526 6.432C23.2423 6.53877 23.1793 6.6828 23.1194 6.77085C22.9738 6.98539 22.7634 7.08796 22.515 7.13286C22.3855 7.14038 22.2828 7.11516 22.1701 7.04997C21.9439 6.91918 21.8166 6.754 21.7582 6.49456C21.7355 6.39311 21.7465 6.26949 21.7455 6.16469L21.7417 5.4884L21.7388 4.3068C21.7387 4.10028 21.7231 3.87788 21.7512 3.67362C21.766 3.56541 21.82 3.45438 21.8809 3.36457C22.0317 3.14192 22.2279 3.05955 22.4828 3.01465Z" fill="#FCFCE4"/>
<path d="M25.4871 20.6875L26.5727 21.1272L25.2096 24.5053L24.7674 24.108L23.8199 23.222C23.6532 23.0658 23.4655 22.9108 23.3203 22.7357C23.4823 22.5318 23.7222 22.3525 23.9121 22.1713L25.4871 20.6875Z" fill="#FCFCE4"/>
<path d="M19.5163 20.7109C19.562 20.7201 19.6027 20.7756 19.6371 20.8081L19.9442 21.0984L21.6478 22.708L20.1522 24.1324L19.7748 24.4861L18.3672 21.1359C18.7301 20.9549 19.136 20.8492 19.5163 20.7109Z" fill="#FCFCE4"/>
<path d="M17.5697 8.51845L24.776 8.50977L26.9235 8.51075L27.3326 8.51655C27.4043 8.51707 27.4979 8.50869 27.5657 8.5322C27.6742 8.56971 27.7413 8.65173 27.7843 8.75666C27.8311 8.87126 27.8202 9.02122 27.7663 9.13105C27.6968 9.27285 27.5775 9.31427 27.4387 9.3627C27.0761 9.38693 26.6988 9.3663 26.3347 9.36665L24.117 9.3685L19.2405 9.3706L18.0584 9.36974C17.9074 9.36936 17.6839 9.39612 17.5429 9.35376C17.4136 9.31491 17.3203 9.25274 17.2572 9.13054C17.2071 9.03343 17.2066 8.8738 17.252 8.7742C17.3152 8.63549 17.4293 8.56335 17.5697 8.51845Z" fill="#FCFCE4"/>
<path d="M27.7074 21.5742L27.9999 21.6804L28.7173 24.8811L27.5382 25.406L27.0734 25.6018C26.9835 25.6391 26.8741 25.6738 26.7943 25.7298C26.6793 25.8104 26.6195 25.92 26.5964 26.0561C26.5468 26.3485 26.7338 26.5324 26.8924 26.7495L27.2167 27.2121L25.1491 28.9673L24.2344 29.7982L27.7074 21.5742Z" fill="#FCFCE4"/>
<path d="M17.1616 21.5664C17.282 21.6083 17.4579 22.1742 17.5153 22.3085L19.2013 26.2002L20.2682 28.6637L20.8003 29.8092L19.9641 29.0788L18.5721 27.859C18.3158 27.6359 18.0355 27.4287 17.804 27.1795C17.8799 27.0655 17.9566 26.9498 18.0446 26.8449C18.1441 26.7263 18.2889 26.6053 18.3607 26.4695C18.4417 26.3162 18.4366 26.1584 18.3811 25.9962C18.3467 25.8953 18.2527 25.8024 18.1669 25.7429C17.9981 25.6257 17.7623 25.5548 17.5723 25.4692L16.2344 24.858L16.9774 21.7447C17.0048 21.6394 17.0755 21.6177 17.1616 21.5664Z" fill="#FCFCE4"/>
<path d="M20.2969 18.2274C20.4904 18.2971 20.679 18.3847 20.8754 18.4461C21.6873 18.6998 22.5531 18.8 23.3931 18.6333C23.8467 18.5434 24.2723 18.3863 24.7028 18.2217L24.701 19.4325C24.6996 19.4971 24.713 19.6699 24.6915 19.721C24.6553 19.8073 24.5059 19.9118 24.4362 19.9769L23.8385 20.5459L22.4786 21.8336L20.3003 19.7476L20.2969 18.2274Z" fill="#FCFCE4"/>
<path d="M18.2227 10.5774L26.7199 10.5732L26.725 12.5909C26.7231 13.0302 26.743 13.4857 26.6877 13.9222C26.6054 14.571 26.327 15.2121 25.9334 15.7316C25.7967 15.912 25.6332 16.0759 25.4778 16.2405L25.4637 16.2547C24.7257 16.9941 23.603 17.4712 22.5562 17.4701C21.3818 17.4687 20.2738 17.0221 19.444 16.1863C18.7607 15.498 18.3078 14.524 18.2265 13.5551C18.195 13.1796 18.2209 12.7801 18.2213 12.4024L18.2227 10.5774Z" fill="#FCFCE4"/>
<path d="M25.02 11.4824C25.1656 11.4852 25.3055 11.5053 25.4335 11.5798C25.6565 11.7096 25.8093 11.9282 25.8657 12.1787C25.9083 12.3679 25.857 12.6072 25.7542 12.7678C25.6099 12.9933 25.3987 13.1087 25.1448 13.1708C25.059 13.172 24.9471 13.1853 24.8655 13.1575C24.7593 13.1212 24.6414 13.0841 24.5519 13.0146C24.379 12.8803 24.2464 12.6682 24.2182 12.4488C24.1879 12.2125 24.2528 11.9641 24.4045 11.7799C24.569 11.5803 24.7726 11.5101 25.02 11.4824Z" fill="#1E1F1C"/>
<path d="M19.837 11.4979C20.0565 11.4899 20.2208 11.4918 20.4162 11.6098C20.5979 11.7197 20.738 11.9101 20.7858 12.1165L20.793 12.1499C20.8415 12.3663 20.8098 12.5678 20.6946 12.7578C20.5607 12.9788 20.3716 13.1006 20.1257 13.168C19.933 13.2012 19.7712 13.1817 19.5991 13.0871C19.3528 12.9517 19.2172 12.7495 19.1476 12.4809C19.1005 12.2987 19.1728 12.0629 19.2671 11.9058C19.3938 11.6944 19.602 11.558 19.837 11.4979Z" fill="#1E1F1C"/>
<path d="M22.2229 14.0799C22.4597 14.0609 22.7146 14.0618 22.948 14.1098C23.6037 14.2445 24.2602 14.592 24.6204 15.1776C24.699 15.3056 24.7133 15.457 24.6743 15.601C24.6256 15.7809 24.5059 15.9352 24.3396 16.0219C24.1425 16.1247 23.848 16.1432 23.6683 15.9919C23.5194 15.8665 23.4198 15.6858 23.2646 15.5602C23.1057 15.4315 22.9354 15.3723 22.7435 15.3101C22.3371 15.2362 21.9049 15.3815 21.6043 15.6672C21.4601 15.8043 21.3382 16.0455 21.1296 16.0927C20.933 16.1372 20.6666 16.0725 20.5045 15.9606C20.3744 15.8708 20.3047 15.714 20.2863 15.5607C20.2675 15.4038 20.3008 15.2517 20.398 15.1249C20.8555 14.5293 21.4814 14.1771 22.2229 14.0799Z" fill="#1E1F1C"/>
</g>
<defs>
<clipPath id="clip0_1446_3337">
<rect width="44" height="44" fill="white" transform="translate(0.5)"/>
</clipPath>
</defs>
</svg>
